<?xml version="1.0" encoding="UTF-8"?><svg id="Layer_1" xmlns="http://www.w3.org/2000/svg" viewBox="0 0 100 40"><defs><style>.cls-1,.cls-2{fill:#fff;}.cls-2{fill-rule:evenodd;}</style></defs><g id="layer1"><g id="g2402"><g id="g3035"><path id="path2405" class="cls-1" d="m59.17,26.23l-12.2-21.2L55.73,0l15.17,26.24h-11.73"/><path id="path2407" class="cls-1" d="m26.67,23.26l8.76-5.07,4.64,8.04h-11.7l-1.7-2.97"/><path id="path2409" class="cls-1" d="m43.87,39.75h2.49v-10.09h-2.49v10.09Z"/><path id="path2411" class="cls-1" d="m75.13,39.99c-2.79,0-4.47-1.44-4.56-3.47h2.63c0,.63.4,1.56,2.1,1.6,1.13,0,1.67-.67,1.67-1.17-.07-.79-1.07-.86-2.13-1.03-1.07-.17-1.97-.36-2.63-.7-.84-.43-1.41-1.36-1.41-2.43,0-1.8,1.56-3.23,4.17-3.23s4.13,1.33,4.3,3.3h-2.54c-.02-.53-.12-1.37-1.62-1.37-1.01,0-1.68.2-1.73.91,0,1.03,2.1.96,3.73,1.39,1.56.4,2.56,1.37,2.56,2.73,0,2.51-2.03,3.47-4.54,3.47"/><path id="path2415" class="cls-1" d="m36.94,14.25l8.76-5.06,9.83,17.03h-9.17v2.49h-2.49v-2.51l-6.93-11.96"/><path id="path2417" class="cls-2" d="m37.17,39.99c-2.9,0-5.26-2.37-5.26-5.24s2.36-5.19,5.26-5.19c1.1,0,2.1.29,2.97.9v-4.23h2.49v13.53h-2.49v-.67c-.87.57-1.87.91-2.97.91h0Zm-2.87-5.24c0,1.56,1.34,2.87,2.94,2.87s2.9-1.3,2.9-2.87-1.34-2.9-2.9-2.9-2.94,1.34-2.94,2.9"/><path id="path2419" class="cls-2" d="m55.61,26.23h2.46v13.53h-2.46v-.67c-.84.57-1.87.91-3,.91-2.87,0-5.23-2.37-5.23-5.24s2.36-5.19,5.23-5.19c1.13,0,2.13.29,3,.9v-4.23h0Zm-5.8,8.53c0,1.56,1.34,2.87,2.87,2.87s2.94-1.3,2.94-2.87-1.34-2.9-2.94-2.9-2.87,1.34-2.87,2.9"/><path id="path2421" class="cls-2" d="m64.13,39.99c-2.86,0-5.23-2.37-5.23-5.24s2.37-5.19,5.23-5.19c1.1,0,2.13.29,2.97.9v-.8h2.49v10.1h-2.49v-.67c-.84.57-1.84.91-2.97.91h0Zm-2.8-5.24c0,1.56,1.34,2.87,2.9,2.87s2.87-1.3,2.87-2.87-1.3-2.9-2.87-2.9-2.9,1.34-2.9,2.9"/><path id="path2423" class="cls-2" d="m22.74,34.75c0,1.56,1.34,2.87,2.9,2.87s2.94-1.3,2.94-2.87-1.34-2.9-2.94-2.9-2.9,1.34-2.9,2.9Zm2.83,5.24c-2.87,0-5.24-2.37-5.24-5.24s2.37-5.19,5.24-5.19c1.1,0,2.13.29,3,.9v-.8h2.46v10.1h-2.46v-.67c-.84.57-1.87.91-3,.91"/></g></g></g></svg>