<?xml version="1.0" encoding="UTF-8"?><svg id="Layer_1" xmlns="http://www.w3.org/2000/svg" viewBox="0 0 100 40"><defs><style>.cls-1{fill:#fff;}</style></defs><g id="Layer_2"><g id="Layer_1-2"><path class="cls-1" d="m69.83,6.87s-1.85.74-4.01,3.11-3.41,5.05-2.48,5.76c.36.27,1.18.32,2.67-1.03,1.38-1.2,2.46-2.7,3.16-4.38.96-2.35.66-3.43.66-3.46m11.8,4.27c-2.4-1.23-4.15-2.73-5.97-3.66-1.74-.89-2.86-1.27-4.27-1.08-.2.03-.39.08-.58.14,0,0,.72,2.47-2.16,6.62-2.92,4.21-5.56,4.18-6.31,3.02-.79-1.22.23-3.71,1.93-5.92,1.78-2.31,4.9-4.23,4.9-4.23,0,0-1-.61-3.44.78-2.39,1.35-6.5,4.56-10.31,9.98s-4.57,8.41-5.12,10.75-.05,4.86,2.55,4.86,5.64-3.97,6.49-5.35c1.59-2.57,2.63-6.52.46-5.98-1.07.27-1.93,1.45-2.47,2.58-.34.73-.61,1.5-.78,2.28-.76.31-1.47.72-2.11,1.23-.72.53-1.39,1.12-2,1.77,0,0,0-1.88,1.51-4.92,1.5-3.04,4.24-4.43,5.8-4.56,1.4-.11,3.23,1.08,1.68,5.47s-6.11,9.72-10.9,9.79c-4.42.06-7.32-5.58-1.16-15.43,6.81-10.88,14.8-14.22,17.4-14.59s3.44.77,3.44.77c1.56-.64,3.25-.92,4.93-.81,3.17.21,5.62,2.46,8.85,4.03-.84.8-1.64,1.65-2.37,2.44m14.23-3.66c-2.2,1.41-5.23,2.68-8.15,2.41-.74.76-1.53,1.65-2.32,2.61,5.06,1,9.5-2.13,11.86-4.81.86-.96,1.6-2.02,2.2-3.16-1.07,1.12-2.28,2.11-3.58,2.94m-6.74,14.26c.04-.07.07-.14.09-.21-.03-.24-.22-.42-.46-.44-.48-.02-1.14.07-2.86,1.98-1.43,1.58-2.66,3.32-3.67,5.2-.99,1.8-1.39,3.15-.82,3.49.18.1.4.12.6.06.38-.09.82-.45,1.48-1.22.31-.36.65-.87,1.07-1.43,1.14-1.55,4.01-6.44,4.58-7.43m-17.92,2.08c.29-.75.65-2.23-.11-2.81-.82-.62-2.9.83-2.92,2.31-.01,1.52,1.47,2.2,1.82,2.3.2.05.27.05.37-.12.31-.54.59-1.11.83-1.69m-1.58,2.76c-.52-.24-1-.55-1.43-.91-.44-.37-.8-.81-1.07-1.31-.03-.05-.06-.01-.09.03s-.16.16-1.27,1.79c-1.11,1.63-2.82,5.01-1.27,5.58.99.37,2.64-1.37,3.54-2.52.61-.8,1.17-1.65,1.66-2.53.05-.1,0-.12-.05-.14m17.54,3.9c-.42.67-.9,1.96.48,1.16,1.69-.98,4.1-4.63,4.1-4.63h1.09c-.99,1.53-2.1,2.98-3.31,4.34-1.71,1.9-3.8,3.62-5.27,3.45-1.72-.2-1.18-2.46-1.18-2.46,0,0-2.46,2.62-4.16,2.43-2.3-.25-1.6-3.09-1.6-3.09,0,0-2.6,3.19-4.37,3.09-2.77-.16-2.08-3.54-1.31-5.91.41-1.27.8-2.27.8-2.27,0,0-.27.07-.87.16-.31.04-.87.08-.87.08,0,0-1.16,2.04-2.08,3.26s-4.85,5.45-7.17,4.6c-2.14-.78-1.43-4.05-.19-6.66,1.82-3.79,6.93-9.24,9.87-8.52,3.05.74.07,6.31.07,6.31,0,0,0,.02.03.04.06.02.22.04.59-.03.38-.08.76-.19,1.12-.33,0,0,3.07-6.43,6.46-10.64s10.16-11.45,12.81-9.7c.64.43.35,1.91-.52,3.72-.39.13-.79.24-1.2.32.59-1.06.97-1.96,1.09-2.58.4-2.17-4.67,2.41-8.3,7.34-2.18,2.97-4.13,6.11-5.8,9.39.66-.4,1.28-.85,1.87-1.34,1.62-1.34,3.16-2.78,4.6-4.3,1.4-1.43,2.7-2.94,3.92-4.52.39-.02.77-.06,1.15-.12-1.32,1.8-2.77,3.51-4.32,5.11-1.45,1.46-3.01,3.04-4.37,4.18-1.21,1.03-2.5,1.99-3.84,2.85,0,0-3.17,6.4-1.45,6.81,1.01.24,3.02-2.84,3.02-2.84,0,0,2.61-3.99,4.19-5.79,2.15-2.44,4-3.86,5.85-3.88,1.08-.02,1.71,1.13,1.71,1.13l.51-.78h3.12s-5.82,9.88-6.29,10.63m8.7-22.99c-2.2,1.41-5.23,2.68-8.15,2.41-.74.76-1.53,1.65-2.32,2.61,5.06,1,9.5-2.13,11.86-4.81.86-.96,1.6-2.02,2.2-3.16-1.07,1.12-2.28,2.11-3.58,2.94m-43.8,4.85h-2.97l-1.68,2.71h2.97l1.68-2.71Zm-14.04,9.38c1.26-1.73,4.74-7.79,4.74-7.79-.03-.24-.22-.42-.46-.44-.48-.02-1.29.14-2.88,2.14-1.59,2-2.84,3.59-3.74,5.24-.99,1.81-1.42,3.08-.85,3.42.18.09.4.11.6.06.37-.09.85-.46,1.52-1.23.31-.36.67-.84,1.08-1.4m-15.92-8.2c-.82-.62-2.9.83-2.92,2.31-.01,1.52,1.88,1.98,2.12,2,.07,0,.14,0,.21-.04.04-.03.08-.06.1-.11.22-.44.42-.88.6-1.34.29-.75.65-2.23-.11-2.81m-1.24,5.23c-.57-.18-1.11-.43-1.61-.74-.49-.32-.88-.76-1.15-1.27-.03-.05-.06-.01-.09.03s-.2.25-1.31,1.89-2.77,4.98-1.22,5.56c.99.37,2.65-1.37,3.56-2.52.68-.9,1.3-1.84,1.87-2.81.04-.1,0-.12-.05-.14m24.22,1h1.09s-5.44,7.88-8.52,7.51c-1.72-.2-1.21-2.32-1.21-2.32,0,0-2.41,2.82-4.63,2.25-2.01-.52-.71-3.86-.71-3.86-.23.09-4.58,4.99-7.63,3.82-3.2-1.23-1.54-5.34-.93-6.57.52-1.04,1.09-2.05,1.09-2.05,0,0-.49.14-.8.21s-.77.16-.77.16c0,0-1.51,2.46-2.44,3.68s-4.85,5.44-7.17,4.6-1.74-4.08-.44-6.65c2.11-4.17,7.11-9.3,10.13-8.52,3.04.78.52,5.71.52,5.71,0,0,.61.08,2.06-.91,2.09-1.43,4.85-5.26,7.84-4.81,1.41.21,2.72,1.65.93,4.38-.57.88-1.53,1.66-2.27.89-.46-.48-.06-1.36.42-1.96.38-.5.98-.77,1.61-.74,0,0,.49-1.13-.76-1.11-1.02.02-3.59,2.39-5.04,4.78-1.33,2.2-3.35,5.94-1.32,6.75,1.86.75,5.39-3.45,7.03-5.64s5.37-7.18,8.49-7.38c1.08-.07,1.72.91,1.72.91l.36-.57h3.13s-5.89,9.83-6.35,10.58c-.36.58-.84,1.89.48,1.16s4.1-4.3,4.1-4.3m-1.7,15.75c-2.3-1.59-5.06-2.4-7.86-2.29-1.54.04-2.96.81-3.84,2.08-1.19-2.08-3.55-3.36-7.2-3.33-5.89.07-11.74,2.78-16.37,2.78S.47,31.91.57,26.96c.19-8.69,7.54-16.52,13.02-20.04,3.16-2.02,5.8-2.63,7.53-2.43,1.26.14,2.78,1.6,1.82,3.74-1.41,3.14-3.35,2.88-3.27,1.38.04-.98.69-1.59,1.18-1.93.31-.21.86-.27,1.14-.28.28-.23.48-1.95-1.77-1.39s-4.98,2.78-7.58,5.65-6.63,8.28-7.63,13.97c-.47,2.64-.16,7.45,6.09,7.39,5.31-.04,13.12-3.54,20.31-3.46,2.79.03,5.22.78,7.11,1.95,1.86,1.14,4.09,2.82,4.88,3.96"/></g></g></svg>