<?xml version="1.0" encoding="UTF-8"?><svg id="Layer_1" xmlns="http://www.w3.org/2000/svg" viewBox="0 0 100 40"><defs><style>.cls-1{fill:#fff;}</style></defs><g id="_Group_"><path id="_Path_" class="cls-1" d="m10.8,19.17l-.04.1c.66.29,2.15,1.45,2.15,3.78,0,2.2-1.85,4.41-4.76,4.41-3.62,0-4.87-2.12-4.87-4.06,0-2.49,1.74-4.15,1.74-6.42-.02-1.65-1.18-3.07-2.79-3.42l-.06.1c.57.56.9,1.33.89,2.13,0,2.45-2.07,4.19-2.07,7.01,0,2.59,1.81,5.23,7.06,5.23,4.67,0,7.14-2.29,7.14-4.72,0-2.09-1.5-3.86-4.4-4.13h.01Z"/><path id="_Compound_Path_" class="cls-1" d="m31.34,27.61l-6.21-8.01v7.22l1.27.3v.33h-2.89v-.33l1.04-.3v-7.87c-.25-.23-.56-.41-.89-.5-.13-.03-.3-.06-.3-.06v-.33h2.45l5.31,6.9v-6.26l-1.27-.31v-.33h2.89v.33l-1.04.31v7.16c0,.66.05,1.63.06,1.75h-.42Zm12.99-5.1c0,3.32-2.32,5.24-4.86,5.24s-4.87-1.95-4.87-4.98,2.32-5,4.85-5c2.61-.09,4.79,1.96,4.88,4.57v.18h0Zm-1.62.5c0-2.44-1.46-4.8-3.44-4.8-2.11,0-3.06,2.04-3.06,4.22s1.2,4.89,3.47,4.89c2.13,0,3.04-2.16,3.04-4.31h-.01Zm3.62-4.31l-1-.31v-.33h3.81v.33l-1.19.31,2.63,7.17,2.63-7.17-1.19-.31v-.33h2.82v.33l-1,.31-3.29,8.94h-.84s-3.38-8.94-3.38-8.94Zm22.53,3.96h-.6v-4.11c1.99,0,3.17.46,3.17,2.08,0,1.21-1.05,2.02-2.57,2.02h0Zm17.06,4.47l1.33-.3v-8.12l-1.33-.31v-.33h4.14v.33l-1.33.31v8.12l1.33.3v.33h-4.14s0-.33,0-.33Zm6.67-2.25h.26l.88,2.02c.52.26,1.1.41,1.68.42,1.14,0,2.18-.66,2.18-1.85,0-.9-.58-1.44-1.53-1.93l-.94-.48c-1.12-.58-2.24-1.4-2.24-2.73,0-1.44,1-2.55,3.13-2.55.75,0,1.49.13,2.2.36l.22,2.18h-.28l-.81-1.75c-.42-.24-.89-.36-1.38-.36-1.08,0-1.81.66-1.81,1.58,0,.83.55,1.36,1.5,1.85l1.11.58c1.51.78,2.23,1.51,2.23,2.85,0,1.66-1.56,2.69-3.49,2.69-.91.01-1.82-.12-2.68-.4l-.24-2.48h0Zm-38.35,2.25l1.06-.3,3.29-8.77,1.1-.28,3.39,9.05,1.06.31v.33h-4.03v-.33l1.36-.31-.96-2.6h-3.62l-.96,2.6,1.36.3v.33h-3.08v-.33h.03Zm2.92-3.6h3.13l-1.55-4.19-1.58,4.19Zm13.6-.66c.33-.08,2.19-.56,2.19-2.32,0-1.42-1.08-2.51-3.76-2.51-1.66,0-3.32.04-3.53.04v.33l1.09.31v8.11l-1.09.31v.33h3.86v-.33l-1.27-.31v-3.67h1.09l2.79,4.31h2.47v-.33l-1.25-.33-2.6-3.94h0Zm8.15-4.31v8.27l-1.33.3v.33h4.14v-.33l-1.33-.3v-8.27h2.23l.74,1.59h.29l-.21-2.07h-7.57l-.21,2.07h.29l.73-1.57,2.24-.02h-.01ZM8.12,24.51l1.33-12.54h-2.75l1.33,12.54h.1-.01Z"/></g></svg>