<svg xmlns="http://www.w3.org/2000/svg" xmlns:xlink="http://www.w3.org/1999/xlink" width="774.472" height="625.707" viewBox="0 0 774.472 625.707">
  <defs>
    <clipPath id="clip-path">
      <rect id="Rectangle_13164" data-name="Rectangle 13164" width="26.734" height="34.726" fill="#c4cdff"/>
    </clipPath>
  </defs>
  <g id="Group_13627" data-name="Group 13627" transform="translate(94.604 -1077.858)" opacity="0.2">
    <g id="Group_13653" data-name="Group 13653" transform="translate(-428.314 -1251.019)">
      <g id="Group_13634" data-name="Group 13634" transform="translate(1081.45 2919.858)" clip-path="url(#clip-path)">
        <path id="Path_510" data-name="Path 510" d="M9.336,0H0L15.994,15.994a5.087,5.087,0,0,0,2.442,1.357,4.869,4.869,0,0,0-2.4,1.314L0,34.726H9.725L26.734,17.363Z" fill="#c4cdff"/>
      </g>
      <g id="Group_13635" data-name="Group 13635" transform="translate(1034.716 2919.858)" clip-path="url(#clip-path)">
        <path id="Path_511" data-name="Path 511" d="M9.336,0H0L15.994,15.994a5.087,5.087,0,0,0,2.442,1.357,4.869,4.869,0,0,0-2.4,1.314L0,34.726H9.725L26.734,17.363Z" fill="#c4cdff"/>
      </g>
      <g id="Group_13636" data-name="Group 13636" transform="translate(987.982 2919.858)" clip-path="url(#clip-path)">
        <path id="Path_512" data-name="Path 512" d="M9.336,0H0L15.994,15.994a5.087,5.087,0,0,0,2.442,1.357,4.869,4.869,0,0,0-2.4,1.314L0,34.726H9.725L26.734,17.363Z" fill="#c4cdff"/>
      </g>
      <g id="Group_13637" data-name="Group 13637" transform="translate(941.249 2919.858)" clip-path="url(#clip-path)">
        <path id="Path_513" data-name="Path 513" d="M9.336,0H0L15.994,15.994a5.087,5.087,0,0,0,2.442,1.357,4.869,4.869,0,0,0-2.4,1.314L0,34.726H9.725L26.734,17.363Z" fill="#c4cdff"/>
      </g>
      <g id="Group_13638" data-name="Group 13638" transform="translate(894.515 2919.858)" clip-path="url(#clip-path)">
        <path id="Path_514" data-name="Path 514" d="M9.336,0H0L15.994,15.994a5.087,5.087,0,0,0,2.442,1.357,4.869,4.869,0,0,0-2.4,1.314L0,34.726H9.725L26.734,17.363Z" fill="#c4cdff"/>
      </g>
      <g id="Group_13639" data-name="Group 13639" transform="translate(847.781 2919.858)" clip-path="url(#clip-path)">
        <path id="Path_515" data-name="Path 515" d="M9.336,0H0L15.994,15.994a5.087,5.087,0,0,0,2.442,1.357,4.869,4.869,0,0,0-2.4,1.314L0,34.726H9.725L26.734,17.363Z" fill="#c4cdff"/>
      </g>
      <g id="Group_13640" data-name="Group 13640" transform="translate(801.048 2919.858)" clip-path="url(#clip-path)">
        <path id="Path_516" data-name="Path 516" d="M9.336,0H0L15.994,15.994a5.087,5.087,0,0,0,2.442,1.357,4.869,4.869,0,0,0-2.4,1.314L0,34.726H9.725L26.734,17.363Z" fill="#c4cdff"/>
      </g>
      <g id="Group_13633" data-name="Group 13633" transform="translate(754.314 2919.858)" clip-path="url(#clip-path)">
        <path id="Path_509" data-name="Path 509" d="M9.336,0H0L15.994,15.994a5.087,5.087,0,0,0,2.442,1.357,4.869,4.869,0,0,0-2.4,1.314L0,34.726H9.725L26.734,17.363Z" fill="#c4cdff"/>
      </g>
      <g id="Group_13632" data-name="Group 13632" transform="translate(707.58 2919.858)" clip-path="url(#clip-path)">
        <path id="Path_508" data-name="Path 508" d="M9.336,0H0L15.994,15.994a5.087,5.087,0,0,0,2.442,1.357,4.869,4.869,0,0,0-2.4,1.314L0,34.726H9.725L26.734,17.363Z" fill="#c4cdff"/>
      </g>
      <g id="Group_13631" data-name="Group 13631" transform="translate(660.847 2919.858)" clip-path="url(#clip-path)">
        <path id="Path_507" data-name="Path 507" d="M9.336,0H0L15.994,15.994a5.087,5.087,0,0,0,2.442,1.357,4.869,4.869,0,0,0-2.4,1.314L0,34.726H9.725L26.734,17.363Z" fill="#c4cdff"/>
      </g>
      <g id="Group_13630" data-name="Group 13630" transform="translate(614.113 2919.858)" clip-path="url(#clip-path)">
        <path id="Path_506" data-name="Path 506" d="M9.336,0H0L15.994,15.994a5.087,5.087,0,0,0,2.442,1.357,4.869,4.869,0,0,0-2.4,1.314L0,34.726H9.725L26.734,17.363Z" fill="#c4cdff"/>
      </g>
      <g id="Group_13641" data-name="Group 13641" transform="translate(567.379 2919.858)" clip-path="url(#clip-path)">
        <path id="Path_517" data-name="Path 517" d="M9.336,0H0L15.994,15.994a5.087,5.087,0,0,0,2.442,1.357,4.869,4.869,0,0,0-2.4,1.314L0,34.726H9.725L26.734,17.363Z" fill="#c4cdff"/>
      </g>
      <g id="Group_13642" data-name="Group 13642" transform="translate(520.646 2919.858)" clip-path="url(#clip-path)">
        <path id="Path_518" data-name="Path 518" d="M9.336,0H0L15.994,15.994a5.087,5.087,0,0,0,2.442,1.357,4.869,4.869,0,0,0-2.4,1.314L0,34.726H9.725L26.734,17.363Z" fill="#c4cdff"/>
      </g>
      <g id="Group_13643" data-name="Group 13643" transform="translate(473.912 2919.858)" clip-path="url(#clip-path)">
        <path id="Path_519" data-name="Path 519" d="M9.336,0H0L15.994,15.994a5.087,5.087,0,0,0,2.442,1.357,4.869,4.869,0,0,0-2.4,1.314L0,34.726H9.725L26.734,17.363Z" fill="#c4cdff"/>
      </g>
      <g id="Group_13629" data-name="Group 13629" transform="translate(427.178 2919.858)" clip-path="url(#clip-path)">
        <path id="Path_505" data-name="Path 505" d="M9.336,0H0L15.994,15.994a5.087,5.087,0,0,0,2.442,1.357,4.869,4.869,0,0,0-2.4,1.314L0,34.726H9.725L26.734,17.363Z" fill="#c4cdff"/>
      </g>
      <g id="Group_13628" data-name="Group 13628" transform="translate(380.445 2919.858)" clip-path="url(#clip-path)">
        <path id="Path_504" data-name="Path 504" d="M9.336,0H0L15.994,15.994a5.087,5.087,0,0,0,2.442,1.357,4.869,4.869,0,0,0-2.4,1.314L0,34.726H9.725L26.734,17.363Z" fill="#c4cdff"/>
      </g>
      <g id="Group_13620" data-name="Group 13620" transform="translate(333.711 2919.858)" clip-path="url(#clip-path)">
        <path id="Path_499" data-name="Path 499" d="M9.336,0H0L15.994,15.994a5.087,5.087,0,0,0,2.442,1.357,4.869,4.869,0,0,0-2.4,1.314L0,34.726H9.725L26.734,17.363Z" fill="#c4cdff"/>
      </g>
    </g>
    <g id="Group_13654" data-name="Group 13654" transform="translate(-428.314 -1304.744)">
      <g id="Group_13634-2" data-name="Group 13634" transform="translate(1081.45 2919.858)" clip-path="url(#clip-path)">
        <path id="Path_510-2" data-name="Path 510" d="M9.336,0H0L15.994,15.994a5.087,5.087,0,0,0,2.442,1.357,4.869,4.869,0,0,0-2.4,1.314L0,34.726H9.725L26.734,17.363Z" fill="#c4cdff"/>
      </g>
      <g id="Group_13635-2" data-name="Group 13635" transform="translate(1034.716 2919.858)" clip-path="url(#clip-path)">
        <path id="Path_511-2" data-name="Path 511" d="M9.336,0H0L15.994,15.994a5.087,5.087,0,0,0,2.442,1.357,4.869,4.869,0,0,0-2.4,1.314L0,34.726H9.725L26.734,17.363Z" fill="#c4cdff"/>
      </g>
      <g id="Group_13636-2" data-name="Group 13636" transform="translate(987.982 2919.858)" clip-path="url(#clip-path)">
        <path id="Path_512-2" data-name="Path 512" d="M9.336,0H0L15.994,15.994a5.087,5.087,0,0,0,2.442,1.357,4.869,4.869,0,0,0-2.4,1.314L0,34.726H9.725L26.734,17.363Z" fill="#c4cdff"/>
      </g>
      <g id="Group_13637-2" data-name="Group 13637" transform="translate(941.249 2919.858)" clip-path="url(#clip-path)">
        <path id="Path_513-2" data-name="Path 513" d="M9.336,0H0L15.994,15.994a5.087,5.087,0,0,0,2.442,1.357,4.869,4.869,0,0,0-2.4,1.314L0,34.726H9.725L26.734,17.363Z" fill="#c4cdff"/>
      </g>
      <g id="Group_13638-2" data-name="Group 13638" transform="translate(894.515 2919.858)" clip-path="url(#clip-path)">
        <path id="Path_514-2" data-name="Path 514" d="M9.336,0H0L15.994,15.994a5.087,5.087,0,0,0,2.442,1.357,4.869,4.869,0,0,0-2.4,1.314L0,34.726H9.725L26.734,17.363Z" fill="#c4cdff"/>
      </g>
      <g id="Group_13639-2" data-name="Group 13639" transform="translate(847.781 2919.858)" clip-path="url(#clip-path)">
        <path id="Path_515-2" data-name="Path 515" d="M9.336,0H0L15.994,15.994a5.087,5.087,0,0,0,2.442,1.357,4.869,4.869,0,0,0-2.4,1.314L0,34.726H9.725L26.734,17.363Z" fill="#c4cdff"/>
      </g>
      <g id="Group_13640-2" data-name="Group 13640" transform="translate(801.048 2919.858)" clip-path="url(#clip-path)">
        <path id="Path_516-2" data-name="Path 516" d="M9.336,0H0L15.994,15.994a5.087,5.087,0,0,0,2.442,1.357,4.869,4.869,0,0,0-2.4,1.314L0,34.726H9.725L26.734,17.363Z" fill="#c4cdff"/>
      </g>
      <g id="Group_13633-2" data-name="Group 13633" transform="translate(754.314 2919.858)" clip-path="url(#clip-path)">
        <path id="Path_509-2" data-name="Path 509" d="M9.336,0H0L15.994,15.994a5.087,5.087,0,0,0,2.442,1.357,4.869,4.869,0,0,0-2.4,1.314L0,34.726H9.725L26.734,17.363Z" fill="#c4cdff"/>
      </g>
      <g id="Group_13632-2" data-name="Group 13632" transform="translate(707.58 2919.858)" clip-path="url(#clip-path)">
        <path id="Path_508-2" data-name="Path 508" d="M9.336,0H0L15.994,15.994a5.087,5.087,0,0,0,2.442,1.357,4.869,4.869,0,0,0-2.4,1.314L0,34.726H9.725L26.734,17.363Z" fill="#c4cdff"/>
      </g>
      <g id="Group_13631-2" data-name="Group 13631" transform="translate(660.847 2919.858)" clip-path="url(#clip-path)">
        <path id="Path_507-2" data-name="Path 507" d="M9.336,0H0L15.994,15.994a5.087,5.087,0,0,0,2.442,1.357,4.869,4.869,0,0,0-2.4,1.314L0,34.726H9.725L26.734,17.363Z" fill="#c4cdff"/>
      </g>
      <g id="Group_13630-2" data-name="Group 13630" transform="translate(614.113 2919.858)" clip-path="url(#clip-path)">
        <path id="Path_506-2" data-name="Path 506" d="M9.336,0H0L15.994,15.994a5.087,5.087,0,0,0,2.442,1.357,4.869,4.869,0,0,0-2.4,1.314L0,34.726H9.725L26.734,17.363Z" fill="#c4cdff"/>
      </g>
      <g id="Group_13641-2" data-name="Group 13641" transform="translate(567.379 2919.858)" clip-path="url(#clip-path)">
        <path id="Path_517-2" data-name="Path 517" d="M9.336,0H0L15.994,15.994a5.087,5.087,0,0,0,2.442,1.357,4.869,4.869,0,0,0-2.4,1.314L0,34.726H9.725L26.734,17.363Z" fill="#c4cdff"/>
      </g>
      <g id="Group_13642-2" data-name="Group 13642" transform="translate(520.646 2919.858)" clip-path="url(#clip-path)">
        <path id="Path_518-2" data-name="Path 518" d="M9.336,0H0L15.994,15.994a5.087,5.087,0,0,0,2.442,1.357,4.869,4.869,0,0,0-2.4,1.314L0,34.726H9.725L26.734,17.363Z" fill="#c4cdff"/>
      </g>
      <g id="Group_13643-2" data-name="Group 13643" transform="translate(473.912 2919.858)" clip-path="url(#clip-path)">
        <path id="Path_519-2" data-name="Path 519" d="M9.336,0H0L15.994,15.994a5.087,5.087,0,0,0,2.442,1.357,4.869,4.869,0,0,0-2.4,1.314L0,34.726H9.725L26.734,17.363Z" fill="#c4cdff"/>
      </g>
      <g id="Group_13629-2" data-name="Group 13629" transform="translate(427.178 2919.858)" clip-path="url(#clip-path)">
        <path id="Path_505-2" data-name="Path 505" d="M9.336,0H0L15.994,15.994a5.087,5.087,0,0,0,2.442,1.357,4.869,4.869,0,0,0-2.4,1.314L0,34.726H9.725L26.734,17.363Z" fill="#c4cdff"/>
      </g>
      <g id="Group_13628-2" data-name="Group 13628" transform="translate(380.445 2919.858)" clip-path="url(#clip-path)">
        <path id="Path_504-2" data-name="Path 504" d="M9.336,0H0L15.994,15.994a5.087,5.087,0,0,0,2.442,1.357,4.869,4.869,0,0,0-2.4,1.314L0,34.726H9.725L26.734,17.363Z" fill="#c4cdff"/>
      </g>
      <g id="Group_13620-2" data-name="Group 13620" transform="translate(333.711 2919.858)" clip-path="url(#clip-path)">
        <path id="Path_499-2" data-name="Path 499" d="M9.336,0H0L15.994,15.994a5.087,5.087,0,0,0,2.442,1.357,4.869,4.869,0,0,0-2.4,1.314L0,34.726H9.725L26.734,17.363Z" fill="#c4cdff"/>
      </g>
    </g>
    <g id="Group_13655" data-name="Group 13655" transform="translate(-428.314 -1358.47)">
      <g id="Group_13634-3" data-name="Group 13634" transform="translate(1081.45 2919.858)" clip-path="url(#clip-path)">
        <path id="Path_510-3" data-name="Path 510" d="M9.336,0H0L15.994,15.994a5.087,5.087,0,0,0,2.442,1.357,4.869,4.869,0,0,0-2.4,1.314L0,34.726H9.725L26.734,17.363Z" fill="#c4cdff"/>
      </g>
      <g id="Group_13635-3" data-name="Group 13635" transform="translate(1034.716 2919.858)" clip-path="url(#clip-path)">
        <path id="Path_511-3" data-name="Path 511" d="M9.336,0H0L15.994,15.994a5.087,5.087,0,0,0,2.442,1.357,4.869,4.869,0,0,0-2.4,1.314L0,34.726H9.725L26.734,17.363Z" fill="#c4cdff"/>
      </g>
      <g id="Group_13636-3" data-name="Group 13636" transform="translate(987.982 2919.858)" clip-path="url(#clip-path)">
        <path id="Path_512-3" data-name="Path 512" d="M9.336,0H0L15.994,15.994a5.087,5.087,0,0,0,2.442,1.357,4.869,4.869,0,0,0-2.4,1.314L0,34.726H9.725L26.734,17.363Z" fill="#c4cdff"/>
      </g>
      <g id="Group_13637-3" data-name="Group 13637" transform="translate(941.249 2919.858)" clip-path="url(#clip-path)">
        <path id="Path_513-3" data-name="Path 513" d="M9.336,0H0L15.994,15.994a5.087,5.087,0,0,0,2.442,1.357,4.869,4.869,0,0,0-2.4,1.314L0,34.726H9.725L26.734,17.363Z" fill="#c4cdff"/>
      </g>
      <g id="Group_13638-3" data-name="Group 13638" transform="translate(894.515 2919.858)" clip-path="url(#clip-path)">
        <path id="Path_514-3" data-name="Path 514" d="M9.336,0H0L15.994,15.994a5.087,5.087,0,0,0,2.442,1.357,4.869,4.869,0,0,0-2.4,1.314L0,34.726H9.725L26.734,17.363Z" fill="#c4cdff"/>
      </g>
      <g id="Group_13639-3" data-name="Group 13639" transform="translate(847.781 2919.858)" clip-path="url(#clip-path)">
        <path id="Path_515-3" data-name="Path 515" d="M9.336,0H0L15.994,15.994a5.087,5.087,0,0,0,2.442,1.357,4.869,4.869,0,0,0-2.4,1.314L0,34.726H9.725L26.734,17.363Z" fill="#c4cdff"/>
      </g>
      <g id="Group_13640-3" data-name="Group 13640" transform="translate(801.048 2919.858)" clip-path="url(#clip-path)">
        <path id="Path_516-3" data-name="Path 516" d="M9.336,0H0L15.994,15.994a5.087,5.087,0,0,0,2.442,1.357,4.869,4.869,0,0,0-2.4,1.314L0,34.726H9.725L26.734,17.363Z" fill="#c4cdff"/>
      </g>
      <g id="Group_13633-3" data-name="Group 13633" transform="translate(754.314 2919.858)" clip-path="url(#clip-path)">
        <path id="Path_509-3" data-name="Path 509" d="M9.336,0H0L15.994,15.994a5.087,5.087,0,0,0,2.442,1.357,4.869,4.869,0,0,0-2.4,1.314L0,34.726H9.725L26.734,17.363Z" fill="#c4cdff"/>
      </g>
      <g id="Group_13632-3" data-name="Group 13632" transform="translate(707.58 2919.858)" clip-path="url(#clip-path)">
        <path id="Path_508-3" data-name="Path 508" d="M9.336,0H0L15.994,15.994a5.087,5.087,0,0,0,2.442,1.357,4.869,4.869,0,0,0-2.4,1.314L0,34.726H9.725L26.734,17.363Z" fill="#c4cdff"/>
      </g>
      <g id="Group_13631-3" data-name="Group 13631" transform="translate(660.847 2919.858)" clip-path="url(#clip-path)">
        <path id="Path_507-3" data-name="Path 507" d="M9.336,0H0L15.994,15.994a5.087,5.087,0,0,0,2.442,1.357,4.869,4.869,0,0,0-2.4,1.314L0,34.726H9.725L26.734,17.363Z" fill="#c4cdff"/>
      </g>
      <g id="Group_13630-3" data-name="Group 13630" transform="translate(614.113 2919.858)" clip-path="url(#clip-path)">
        <path id="Path_506-3" data-name="Path 506" d="M9.336,0H0L15.994,15.994a5.087,5.087,0,0,0,2.442,1.357,4.869,4.869,0,0,0-2.4,1.314L0,34.726H9.725L26.734,17.363Z" fill="#c4cdff"/>
      </g>
      <g id="Group_13641-3" data-name="Group 13641" transform="translate(567.379 2919.858)" clip-path="url(#clip-path)">
        <path id="Path_517-3" data-name="Path 517" d="M9.336,0H0L15.994,15.994a5.087,5.087,0,0,0,2.442,1.357,4.869,4.869,0,0,0-2.4,1.314L0,34.726H9.725L26.734,17.363Z" fill="#c4cdff"/>
      </g>
      <g id="Group_13642-3" data-name="Group 13642" transform="translate(520.646 2919.858)" clip-path="url(#clip-path)">
        <path id="Path_518-3" data-name="Path 518" d="M9.336,0H0L15.994,15.994a5.087,5.087,0,0,0,2.442,1.357,4.869,4.869,0,0,0-2.4,1.314L0,34.726H9.725L26.734,17.363Z" fill="#c4cdff"/>
      </g>
      <g id="Group_13643-3" data-name="Group 13643" transform="translate(473.912 2919.858)" clip-path="url(#clip-path)">
        <path id="Path_519-3" data-name="Path 519" d="M9.336,0H0L15.994,15.994a5.087,5.087,0,0,0,2.442,1.357,4.869,4.869,0,0,0-2.4,1.314L0,34.726H9.725L26.734,17.363Z" fill="#c4cdff"/>
      </g>
      <g id="Group_13629-3" data-name="Group 13629" transform="translate(427.178 2919.858)" clip-path="url(#clip-path)">
        <path id="Path_505-3" data-name="Path 505" d="M9.336,0H0L15.994,15.994a5.087,5.087,0,0,0,2.442,1.357,4.869,4.869,0,0,0-2.4,1.314L0,34.726H9.725L26.734,17.363Z" fill="#c4cdff"/>
      </g>
      <g id="Group_13628-3" data-name="Group 13628" transform="translate(380.445 2919.858)" clip-path="url(#clip-path)">
        <path id="Path_504-3" data-name="Path 504" d="M9.336,0H0L15.994,15.994a5.087,5.087,0,0,0,2.442,1.357,4.869,4.869,0,0,0-2.4,1.314L0,34.726H9.725L26.734,17.363Z" fill="#c4cdff"/>
      </g>
      <g id="Group_13620-3" data-name="Group 13620" transform="translate(333.711 2919.858)" clip-path="url(#clip-path)">
        <path id="Path_499-3" data-name="Path 499" d="M9.336,0H0L15.994,15.994a5.087,5.087,0,0,0,2.442,1.357,4.869,4.869,0,0,0-2.4,1.314L0,34.726H9.725L26.734,17.363Z" fill="#c4cdff"/>
      </g>
    </g>
    <g id="Group_13650" data-name="Group 13650" transform="translate(-428.314 -1412.195)">
      <g id="Group_13634-4" data-name="Group 13634" transform="translate(1081.45 2919.858)" clip-path="url(#clip-path)">
        <path id="Path_510-4" data-name="Path 510" d="M9.336,0H0L15.994,15.994a5.087,5.087,0,0,0,2.442,1.357,4.869,4.869,0,0,0-2.4,1.314L0,34.726H9.725L26.734,17.363Z" fill="#c4cdff"/>
      </g>
      <g id="Group_13635-4" data-name="Group 13635" transform="translate(1034.716 2919.858)" clip-path="url(#clip-path)">
        <path id="Path_511-4" data-name="Path 511" d="M9.336,0H0L15.994,15.994a5.087,5.087,0,0,0,2.442,1.357,4.869,4.869,0,0,0-2.4,1.314L0,34.726H9.725L26.734,17.363Z" fill="#c4cdff"/>
      </g>
      <g id="Group_13636-4" data-name="Group 13636" transform="translate(987.982 2919.858)" clip-path="url(#clip-path)">
        <path id="Path_512-4" data-name="Path 512" d="M9.336,0H0L15.994,15.994a5.087,5.087,0,0,0,2.442,1.357,4.869,4.869,0,0,0-2.4,1.314L0,34.726H9.725L26.734,17.363Z" fill="#c4cdff"/>
      </g>
      <g id="Group_13637-4" data-name="Group 13637" transform="translate(941.249 2919.858)" clip-path="url(#clip-path)">
        <path id="Path_513-4" data-name="Path 513" d="M9.336,0H0L15.994,15.994a5.087,5.087,0,0,0,2.442,1.357,4.869,4.869,0,0,0-2.4,1.314L0,34.726H9.725L26.734,17.363Z" fill="#c4cdff"/>
      </g>
      <g id="Group_13638-4" data-name="Group 13638" transform="translate(894.515 2919.858)" clip-path="url(#clip-path)">
        <path id="Path_514-4" data-name="Path 514" d="M9.336,0H0L15.994,15.994a5.087,5.087,0,0,0,2.442,1.357,4.869,4.869,0,0,0-2.4,1.314L0,34.726H9.725L26.734,17.363Z" fill="#c4cdff"/>
      </g>
      <g id="Group_13639-4" data-name="Group 13639" transform="translate(847.781 2919.858)" clip-path="url(#clip-path)">
        <path id="Path_515-4" data-name="Path 515" d="M9.336,0H0L15.994,15.994a5.087,5.087,0,0,0,2.442,1.357,4.869,4.869,0,0,0-2.4,1.314L0,34.726H9.725L26.734,17.363Z" fill="#c4cdff"/>
      </g>
      <g id="Group_13640-4" data-name="Group 13640" transform="translate(801.048 2919.858)" clip-path="url(#clip-path)">
        <path id="Path_516-4" data-name="Path 516" d="M9.336,0H0L15.994,15.994a5.087,5.087,0,0,0,2.442,1.357,4.869,4.869,0,0,0-2.4,1.314L0,34.726H9.725L26.734,17.363Z" fill="#c4cdff"/>
      </g>
      <g id="Group_13633-4" data-name="Group 13633" transform="translate(754.314 2919.858)" clip-path="url(#clip-path)">
        <path id="Path_509-4" data-name="Path 509" d="M9.336,0H0L15.994,15.994a5.087,5.087,0,0,0,2.442,1.357,4.869,4.869,0,0,0-2.4,1.314L0,34.726H9.725L26.734,17.363Z" fill="#c4cdff"/>
      </g>
      <g id="Group_13632-4" data-name="Group 13632" transform="translate(707.58 2919.858)" clip-path="url(#clip-path)">
        <path id="Path_508-4" data-name="Path 508" d="M9.336,0H0L15.994,15.994a5.087,5.087,0,0,0,2.442,1.357,4.869,4.869,0,0,0-2.4,1.314L0,34.726H9.725L26.734,17.363Z" fill="#c4cdff"/>
      </g>
      <g id="Group_13631-4" data-name="Group 13631" transform="translate(660.847 2919.858)" clip-path="url(#clip-path)">
        <path id="Path_507-4" data-name="Path 507" d="M9.336,0H0L15.994,15.994a5.087,5.087,0,0,0,2.442,1.357,4.869,4.869,0,0,0-2.4,1.314L0,34.726H9.725L26.734,17.363Z" fill="#c4cdff"/>
      </g>
      <g id="Group_13630-4" data-name="Group 13630" transform="translate(614.113 2919.858)" clip-path="url(#clip-path)">
        <path id="Path_506-4" data-name="Path 506" d="M9.336,0H0L15.994,15.994a5.087,5.087,0,0,0,2.442,1.357,4.869,4.869,0,0,0-2.4,1.314L0,34.726H9.725L26.734,17.363Z" fill="#c4cdff"/>
      </g>
      <g id="Group_13641-4" data-name="Group 13641" transform="translate(567.379 2919.858)" clip-path="url(#clip-path)">
        <path id="Path_517-4" data-name="Path 517" d="M9.336,0H0L15.994,15.994a5.087,5.087,0,0,0,2.442,1.357,4.869,4.869,0,0,0-2.4,1.314L0,34.726H9.725L26.734,17.363Z" fill="#c4cdff"/>
      </g>
      <g id="Group_13642-4" data-name="Group 13642" transform="translate(520.646 2919.858)" clip-path="url(#clip-path)">
        <path id="Path_518-4" data-name="Path 518" d="M9.336,0H0L15.994,15.994a5.087,5.087,0,0,0,2.442,1.357,4.869,4.869,0,0,0-2.4,1.314L0,34.726H9.725L26.734,17.363Z" fill="#c4cdff"/>
      </g>
      <g id="Group_13643-4" data-name="Group 13643" transform="translate(473.912 2919.858)" clip-path="url(#clip-path)">
        <path id="Path_519-4" data-name="Path 519" d="M9.336,0H0L15.994,15.994a5.087,5.087,0,0,0,2.442,1.357,4.869,4.869,0,0,0-2.4,1.314L0,34.726H9.725L26.734,17.363Z" fill="#c4cdff"/>
      </g>
      <g id="Group_13629-4" data-name="Group 13629" transform="translate(427.178 2919.858)" clip-path="url(#clip-path)">
        <path id="Path_505-4" data-name="Path 505" d="M9.336,0H0L15.994,15.994a5.087,5.087,0,0,0,2.442,1.357,4.869,4.869,0,0,0-2.4,1.314L0,34.726H9.725L26.734,17.363Z" fill="#c4cdff"/>
      </g>
      <g id="Group_13628-4" data-name="Group 13628" transform="translate(380.445 2919.858)" clip-path="url(#clip-path)">
        <path id="Path_504-4" data-name="Path 504" d="M9.336,0H0L15.994,15.994a5.087,5.087,0,0,0,2.442,1.357,4.869,4.869,0,0,0-2.4,1.314L0,34.726H9.725L26.734,17.363Z" fill="#c4cdff"/>
      </g>
      <g id="Group_13620-4" data-name="Group 13620" transform="translate(333.711 2919.858)" clip-path="url(#clip-path)">
        <path id="Path_499-4" data-name="Path 499" d="M9.336,0H0L15.994,15.994a5.087,5.087,0,0,0,2.442,1.357,4.869,4.869,0,0,0-2.4,1.314L0,34.726H9.725L26.734,17.363Z" fill="#c4cdff"/>
      </g>
    </g>
    <g id="Group_13651" data-name="Group 13651" transform="translate(-428.314 -1465.921)">
      <g id="Group_13634-5" data-name="Group 13634" transform="translate(1081.45 2919.858)" clip-path="url(#clip-path)">
        <path id="Path_510-5" data-name="Path 510" d="M9.336,0H0L15.994,15.994a5.087,5.087,0,0,0,2.442,1.357,4.869,4.869,0,0,0-2.4,1.314L0,34.726H9.725L26.734,17.363Z" fill="#c4cdff"/>
      </g>
      <g id="Group_13635-5" data-name="Group 13635" transform="translate(1034.716 2919.858)" clip-path="url(#clip-path)">
        <path id="Path_511-5" data-name="Path 511" d="M9.336,0H0L15.994,15.994a5.087,5.087,0,0,0,2.442,1.357,4.869,4.869,0,0,0-2.4,1.314L0,34.726H9.725L26.734,17.363Z" fill="#c4cdff"/>
      </g>
      <g id="Group_13636-5" data-name="Group 13636" transform="translate(987.982 2919.858)" clip-path="url(#clip-path)">
        <path id="Path_512-5" data-name="Path 512" d="M9.336,0H0L15.994,15.994a5.087,5.087,0,0,0,2.442,1.357,4.869,4.869,0,0,0-2.4,1.314L0,34.726H9.725L26.734,17.363Z" fill="#c4cdff"/>
      </g>
      <g id="Group_13637-5" data-name="Group 13637" transform="translate(941.249 2919.858)" clip-path="url(#clip-path)">
        <path id="Path_513-5" data-name="Path 513" d="M9.336,0H0L15.994,15.994a5.087,5.087,0,0,0,2.442,1.357,4.869,4.869,0,0,0-2.4,1.314L0,34.726H9.725L26.734,17.363Z" fill="#c4cdff"/>
      </g>
      <g id="Group_13638-5" data-name="Group 13638" transform="translate(894.515 2919.858)" clip-path="url(#clip-path)">
        <path id="Path_514-5" data-name="Path 514" d="M9.336,0H0L15.994,15.994a5.087,5.087,0,0,0,2.442,1.357,4.869,4.869,0,0,0-2.4,1.314L0,34.726H9.725L26.734,17.363Z" fill="#c4cdff"/>
      </g>
      <g id="Group_13639-5" data-name="Group 13639" transform="translate(847.781 2919.858)" clip-path="url(#clip-path)">
        <path id="Path_515-5" data-name="Path 515" d="M9.336,0H0L15.994,15.994a5.087,5.087,0,0,0,2.442,1.357,4.869,4.869,0,0,0-2.4,1.314L0,34.726H9.725L26.734,17.363Z" fill="#c4cdff"/>
      </g>
      <g id="Group_13640-5" data-name="Group 13640" transform="translate(801.048 2919.858)" clip-path="url(#clip-path)">
        <path id="Path_516-5" data-name="Path 516" d="M9.336,0H0L15.994,15.994a5.087,5.087,0,0,0,2.442,1.357,4.869,4.869,0,0,0-2.4,1.314L0,34.726H9.725L26.734,17.363Z" fill="#c4cdff"/>
      </g>
      <g id="Group_13633-5" data-name="Group 13633" transform="translate(754.314 2919.858)" clip-path="url(#clip-path)">
        <path id="Path_509-5" data-name="Path 509" d="M9.336,0H0L15.994,15.994a5.087,5.087,0,0,0,2.442,1.357,4.869,4.869,0,0,0-2.4,1.314L0,34.726H9.725L26.734,17.363Z" fill="#c4cdff"/>
      </g>
      <g id="Group_13632-5" data-name="Group 13632" transform="translate(707.58 2919.858)" clip-path="url(#clip-path)">
        <path id="Path_508-5" data-name="Path 508" d="M9.336,0H0L15.994,15.994a5.087,5.087,0,0,0,2.442,1.357,4.869,4.869,0,0,0-2.4,1.314L0,34.726H9.725L26.734,17.363Z" fill="#c4cdff"/>
      </g>
      <g id="Group_13631-5" data-name="Group 13631" transform="translate(660.847 2919.858)" clip-path="url(#clip-path)">
        <path id="Path_507-5" data-name="Path 507" d="M9.336,0H0L15.994,15.994a5.087,5.087,0,0,0,2.442,1.357,4.869,4.869,0,0,0-2.4,1.314L0,34.726H9.725L26.734,17.363Z" fill="#c4cdff"/>
      </g>
      <g id="Group_13630-5" data-name="Group 13630" transform="translate(614.113 2919.858)" clip-path="url(#clip-path)">
        <path id="Path_506-5" data-name="Path 506" d="M9.336,0H0L15.994,15.994a5.087,5.087,0,0,0,2.442,1.357,4.869,4.869,0,0,0-2.4,1.314L0,34.726H9.725L26.734,17.363Z" fill="#c4cdff"/>
      </g>
      <g id="Group_13641-5" data-name="Group 13641" transform="translate(567.379 2919.858)" clip-path="url(#clip-path)">
        <path id="Path_517-5" data-name="Path 517" d="M9.336,0H0L15.994,15.994a5.087,5.087,0,0,0,2.442,1.357,4.869,4.869,0,0,0-2.4,1.314L0,34.726H9.725L26.734,17.363Z" fill="#c4cdff"/>
      </g>
      <g id="Group_13642-5" data-name="Group 13642" transform="translate(520.646 2919.858)" clip-path="url(#clip-path)">
        <path id="Path_518-5" data-name="Path 518" d="M9.336,0H0L15.994,15.994a5.087,5.087,0,0,0,2.442,1.357,4.869,4.869,0,0,0-2.4,1.314L0,34.726H9.725L26.734,17.363Z" fill="#c4cdff"/>
      </g>
      <g id="Group_13643-5" data-name="Group 13643" transform="translate(473.912 2919.858)" clip-path="url(#clip-path)">
        <path id="Path_519-5" data-name="Path 519" d="M9.336,0H0L15.994,15.994a5.087,5.087,0,0,0,2.442,1.357,4.869,4.869,0,0,0-2.4,1.314L0,34.726H9.725L26.734,17.363Z" fill="#c4cdff"/>
      </g>
      <g id="Group_13629-5" data-name="Group 13629" transform="translate(427.178 2919.858)" clip-path="url(#clip-path)">
        <path id="Path_505-5" data-name="Path 505" d="M9.336,0H0L15.994,15.994a5.087,5.087,0,0,0,2.442,1.357,4.869,4.869,0,0,0-2.4,1.314L0,34.726H9.725L26.734,17.363Z" fill="#c4cdff"/>
      </g>
      <g id="Group_13628-5" data-name="Group 13628" transform="translate(380.445 2919.858)" clip-path="url(#clip-path)">
        <path id="Path_504-5" data-name="Path 504" d="M9.336,0H0L15.994,15.994a5.087,5.087,0,0,0,2.442,1.357,4.869,4.869,0,0,0-2.4,1.314L0,34.726H9.725L26.734,17.363Z" fill="#c4cdff"/>
      </g>
      <g id="Group_13620-5" data-name="Group 13620" transform="translate(333.711 2919.858)" clip-path="url(#clip-path)">
        <path id="Path_499-5" data-name="Path 499" d="M9.336,0H0L15.994,15.994a5.087,5.087,0,0,0,2.442,1.357,4.869,4.869,0,0,0-2.4,1.314L0,34.726H9.725L26.734,17.363Z" fill="#c4cdff"/>
      </g>
    </g>
    <g id="Group_13652" data-name="Group 13652" transform="translate(-428.314 -1519.646)">
      <g id="Group_13634-6" data-name="Group 13634" transform="translate(1081.45 2919.858)" clip-path="url(#clip-path)">
        <path id="Path_510-6" data-name="Path 510" d="M9.336,0H0L15.994,15.994a5.087,5.087,0,0,0,2.442,1.357,4.869,4.869,0,0,0-2.4,1.314L0,34.726H9.725L26.734,17.363Z" fill="#c4cdff"/>
      </g>
      <g id="Group_13635-6" data-name="Group 13635" transform="translate(1034.716 2919.858)" clip-path="url(#clip-path)">
        <path id="Path_511-6" data-name="Path 511" d="M9.336,0H0L15.994,15.994a5.087,5.087,0,0,0,2.442,1.357,4.869,4.869,0,0,0-2.4,1.314L0,34.726H9.725L26.734,17.363Z" fill="#c4cdff"/>
      </g>
      <g id="Group_13636-6" data-name="Group 13636" transform="translate(987.982 2919.858)" clip-path="url(#clip-path)">
        <path id="Path_512-6" data-name="Path 512" d="M9.336,0H0L15.994,15.994a5.087,5.087,0,0,0,2.442,1.357,4.869,4.869,0,0,0-2.4,1.314L0,34.726H9.725L26.734,17.363Z" fill="#c4cdff"/>
      </g>
      <g id="Group_13637-6" data-name="Group 13637" transform="translate(941.249 2919.858)" clip-path="url(#clip-path)">
        <path id="Path_513-6" data-name="Path 513" d="M9.336,0H0L15.994,15.994a5.087,5.087,0,0,0,2.442,1.357,4.869,4.869,0,0,0-2.4,1.314L0,34.726H9.725L26.734,17.363Z" fill="#c4cdff"/>
      </g>
      <g id="Group_13638-6" data-name="Group 13638" transform="translate(894.515 2919.858)" clip-path="url(#clip-path)">
        <path id="Path_514-6" data-name="Path 514" d="M9.336,0H0L15.994,15.994a5.087,5.087,0,0,0,2.442,1.357,4.869,4.869,0,0,0-2.4,1.314L0,34.726H9.725L26.734,17.363Z" fill="#c4cdff"/>
      </g>
      <g id="Group_13639-6" data-name="Group 13639" transform="translate(847.781 2919.858)" clip-path="url(#clip-path)">
        <path id="Path_515-6" data-name="Path 515" d="M9.336,0H0L15.994,15.994a5.087,5.087,0,0,0,2.442,1.357,4.869,4.869,0,0,0-2.4,1.314L0,34.726H9.725L26.734,17.363Z" fill="#c4cdff"/>
      </g>
      <g id="Group_13640-6" data-name="Group 13640" transform="translate(801.048 2919.858)" clip-path="url(#clip-path)">
        <path id="Path_516-6" data-name="Path 516" d="M9.336,0H0L15.994,15.994a5.087,5.087,0,0,0,2.442,1.357,4.869,4.869,0,0,0-2.4,1.314L0,34.726H9.725L26.734,17.363Z" fill="#c4cdff"/>
      </g>
      <g id="Group_13633-6" data-name="Group 13633" transform="translate(754.314 2919.858)" clip-path="url(#clip-path)">
        <path id="Path_509-6" data-name="Path 509" d="M9.336,0H0L15.994,15.994a5.087,5.087,0,0,0,2.442,1.357,4.869,4.869,0,0,0-2.4,1.314L0,34.726H9.725L26.734,17.363Z" fill="#c4cdff"/>
      </g>
      <g id="Group_13632-6" data-name="Group 13632" transform="translate(707.58 2919.858)" clip-path="url(#clip-path)">
        <path id="Path_508-6" data-name="Path 508" d="M9.336,0H0L15.994,15.994a5.087,5.087,0,0,0,2.442,1.357,4.869,4.869,0,0,0-2.4,1.314L0,34.726H9.725L26.734,17.363Z" fill="#c4cdff"/>
      </g>
      <g id="Group_13631-6" data-name="Group 13631" transform="translate(660.847 2919.858)" clip-path="url(#clip-path)">
        <path id="Path_507-6" data-name="Path 507" d="M9.336,0H0L15.994,15.994a5.087,5.087,0,0,0,2.442,1.357,4.869,4.869,0,0,0-2.4,1.314L0,34.726H9.725L26.734,17.363Z" fill="#c4cdff"/>
      </g>
      <g id="Group_13630-6" data-name="Group 13630" transform="translate(614.113 2919.858)" clip-path="url(#clip-path)">
        <path id="Path_506-6" data-name="Path 506" d="M9.336,0H0L15.994,15.994a5.087,5.087,0,0,0,2.442,1.357,4.869,4.869,0,0,0-2.4,1.314L0,34.726H9.725L26.734,17.363Z" fill="#c4cdff"/>
      </g>
      <g id="Group_13641-6" data-name="Group 13641" transform="translate(567.379 2919.858)" clip-path="url(#clip-path)">
        <path id="Path_517-6" data-name="Path 517" d="M9.336,0H0L15.994,15.994a5.087,5.087,0,0,0,2.442,1.357,4.869,4.869,0,0,0-2.4,1.314L0,34.726H9.725L26.734,17.363Z" fill="#c4cdff"/>
      </g>
      <g id="Group_13642-6" data-name="Group 13642" transform="translate(520.646 2919.858)" clip-path="url(#clip-path)">
        <path id="Path_518-6" data-name="Path 518" d="M9.336,0H0L15.994,15.994a5.087,5.087,0,0,0,2.442,1.357,4.869,4.869,0,0,0-2.4,1.314L0,34.726H9.725L26.734,17.363Z" fill="#c4cdff"/>
      </g>
      <g id="Group_13643-6" data-name="Group 13643" transform="translate(473.912 2919.858)" clip-path="url(#clip-path)">
        <path id="Path_519-6" data-name="Path 519" d="M9.336,0H0L15.994,15.994a5.087,5.087,0,0,0,2.442,1.357,4.869,4.869,0,0,0-2.4,1.314L0,34.726H9.725L26.734,17.363Z" fill="#c4cdff"/>
      </g>
      <g id="Group_13629-6" data-name="Group 13629" transform="translate(427.178 2919.858)" clip-path="url(#clip-path)">
        <path id="Path_505-6" data-name="Path 505" d="M9.336,0H0L15.994,15.994a5.087,5.087,0,0,0,2.442,1.357,4.869,4.869,0,0,0-2.4,1.314L0,34.726H9.725L26.734,17.363Z" fill="#c4cdff"/>
      </g>
      <g id="Group_13628-6" data-name="Group 13628" transform="translate(380.445 2919.858)" clip-path="url(#clip-path)">
        <path id="Path_504-6" data-name="Path 504" d="M9.336,0H0L15.994,15.994a5.087,5.087,0,0,0,2.442,1.357,4.869,4.869,0,0,0-2.4,1.314L0,34.726H9.725L26.734,17.363Z" fill="#c4cdff"/>
      </g>
      <g id="Group_13620-6" data-name="Group 13620" transform="translate(333.711 2919.858)" clip-path="url(#clip-path)">
        <path id="Path_499-6" data-name="Path 499" d="M9.336,0H0L15.994,15.994a5.087,5.087,0,0,0,2.442,1.357,4.869,4.869,0,0,0-2.4,1.314L0,34.726H9.725L26.734,17.363Z" fill="#c4cdff"/>
      </g>
    </g>
    <g id="Group_13647" data-name="Group 13647" transform="translate(-428.314 -1573.372)">
      <g id="Group_13634-7" data-name="Group 13634" transform="translate(1081.45 2919.858)" clip-path="url(#clip-path)">
        <path id="Path_510-7" data-name="Path 510" d="M9.336,0H0L15.994,15.994a5.087,5.087,0,0,0,2.442,1.357,4.869,4.869,0,0,0-2.4,1.314L0,34.726H9.725L26.734,17.363Z" fill="#c4cdff"/>
      </g>
      <g id="Group_13635-7" data-name="Group 13635" transform="translate(1034.716 2919.858)" clip-path="url(#clip-path)">
        <path id="Path_511-7" data-name="Path 511" d="M9.336,0H0L15.994,15.994a5.087,5.087,0,0,0,2.442,1.357,4.869,4.869,0,0,0-2.4,1.314L0,34.726H9.725L26.734,17.363Z" fill="#c4cdff"/>
      </g>
      <g id="Group_13636-7" data-name="Group 13636" transform="translate(987.982 2919.858)" clip-path="url(#clip-path)">
        <path id="Path_512-7" data-name="Path 512" d="M9.336,0H0L15.994,15.994a5.087,5.087,0,0,0,2.442,1.357,4.869,4.869,0,0,0-2.4,1.314L0,34.726H9.725L26.734,17.363Z" fill="#c4cdff"/>
      </g>
      <g id="Group_13637-7" data-name="Group 13637" transform="translate(941.249 2919.858)" clip-path="url(#clip-path)">
        <path id="Path_513-7" data-name="Path 513" d="M9.336,0H0L15.994,15.994a5.087,5.087,0,0,0,2.442,1.357,4.869,4.869,0,0,0-2.4,1.314L0,34.726H9.725L26.734,17.363Z" fill="#c4cdff"/>
      </g>
      <g id="Group_13638-7" data-name="Group 13638" transform="translate(894.515 2919.858)" clip-path="url(#clip-path)">
        <path id="Path_514-7" data-name="Path 514" d="M9.336,0H0L15.994,15.994a5.087,5.087,0,0,0,2.442,1.357,4.869,4.869,0,0,0-2.4,1.314L0,34.726H9.725L26.734,17.363Z" fill="#c4cdff"/>
      </g>
      <g id="Group_13639-7" data-name="Group 13639" transform="translate(847.781 2919.858)" clip-path="url(#clip-path)">
        <path id="Path_515-7" data-name="Path 515" d="M9.336,0H0L15.994,15.994a5.087,5.087,0,0,0,2.442,1.357,4.869,4.869,0,0,0-2.4,1.314L0,34.726H9.725L26.734,17.363Z" fill="#c4cdff"/>
      </g>
      <g id="Group_13640-7" data-name="Group 13640" transform="translate(801.048 2919.858)" clip-path="url(#clip-path)">
        <path id="Path_516-7" data-name="Path 516" d="M9.336,0H0L15.994,15.994a5.087,5.087,0,0,0,2.442,1.357,4.869,4.869,0,0,0-2.4,1.314L0,34.726H9.725L26.734,17.363Z" fill="#c4cdff"/>
      </g>
      <g id="Group_13633-7" data-name="Group 13633" transform="translate(754.314 2919.858)" clip-path="url(#clip-path)">
        <path id="Path_509-7" data-name="Path 509" d="M9.336,0H0L15.994,15.994a5.087,5.087,0,0,0,2.442,1.357,4.869,4.869,0,0,0-2.4,1.314L0,34.726H9.725L26.734,17.363Z" fill="#c4cdff"/>
      </g>
      <g id="Group_13632-7" data-name="Group 13632" transform="translate(707.58 2919.858)" clip-path="url(#clip-path)">
        <path id="Path_508-7" data-name="Path 508" d="M9.336,0H0L15.994,15.994a5.087,5.087,0,0,0,2.442,1.357,4.869,4.869,0,0,0-2.4,1.314L0,34.726H9.725L26.734,17.363Z" fill="#c4cdff"/>
      </g>
      <g id="Group_13631-7" data-name="Group 13631" transform="translate(660.847 2919.858)" clip-path="url(#clip-path)">
        <path id="Path_507-7" data-name="Path 507" d="M9.336,0H0L15.994,15.994a5.087,5.087,0,0,0,2.442,1.357,4.869,4.869,0,0,0-2.4,1.314L0,34.726H9.725L26.734,17.363Z" fill="#c4cdff"/>
      </g>
      <g id="Group_13630-7" data-name="Group 13630" transform="translate(614.113 2919.858)" clip-path="url(#clip-path)">
        <path id="Path_506-7" data-name="Path 506" d="M9.336,0H0L15.994,15.994a5.087,5.087,0,0,0,2.442,1.357,4.869,4.869,0,0,0-2.4,1.314L0,34.726H9.725L26.734,17.363Z" fill="#c4cdff"/>
      </g>
      <g id="Group_13641-7" data-name="Group 13641" transform="translate(567.379 2919.858)" clip-path="url(#clip-path)">
        <path id="Path_517-7" data-name="Path 517" d="M9.336,0H0L15.994,15.994a5.087,5.087,0,0,0,2.442,1.357,4.869,4.869,0,0,0-2.4,1.314L0,34.726H9.725L26.734,17.363Z" fill="#c4cdff"/>
      </g>
      <g id="Group_13642-7" data-name="Group 13642" transform="translate(520.646 2919.858)" clip-path="url(#clip-path)">
        <path id="Path_518-7" data-name="Path 518" d="M9.336,0H0L15.994,15.994a5.087,5.087,0,0,0,2.442,1.357,4.869,4.869,0,0,0-2.4,1.314L0,34.726H9.725L26.734,17.363Z" fill="#c4cdff"/>
      </g>
      <g id="Group_13643-7" data-name="Group 13643" transform="translate(473.912 2919.858)" clip-path="url(#clip-path)">
        <path id="Path_519-7" data-name="Path 519" d="M9.336,0H0L15.994,15.994a5.087,5.087,0,0,0,2.442,1.357,4.869,4.869,0,0,0-2.4,1.314L0,34.726H9.725L26.734,17.363Z" fill="#c4cdff"/>
      </g>
      <g id="Group_13629-7" data-name="Group 13629" transform="translate(427.178 2919.858)" clip-path="url(#clip-path)">
        <path id="Path_505-7" data-name="Path 505" d="M9.336,0H0L15.994,15.994a5.087,5.087,0,0,0,2.442,1.357,4.869,4.869,0,0,0-2.4,1.314L0,34.726H9.725L26.734,17.363Z" fill="#c4cdff"/>
      </g>
      <g id="Group_13628-7" data-name="Group 13628" transform="translate(380.445 2919.858)" clip-path="url(#clip-path)">
        <path id="Path_504-7" data-name="Path 504" d="M9.336,0H0L15.994,15.994a5.087,5.087,0,0,0,2.442,1.357,4.869,4.869,0,0,0-2.4,1.314L0,34.726H9.725L26.734,17.363Z" fill="#c4cdff"/>
      </g>
      <g id="Group_13620-7" data-name="Group 13620" transform="translate(333.711 2919.858)" clip-path="url(#clip-path)">
        <path id="Path_499-7" data-name="Path 499" d="M9.336,0H0L15.994,15.994a5.087,5.087,0,0,0,2.442,1.357,4.869,4.869,0,0,0-2.4,1.314L0,34.726H9.725L26.734,17.363Z" fill="#c4cdff"/>
      </g>
    </g>
    <g id="Group_13648" data-name="Group 13648" transform="translate(-428.314 -1627.098)">
      <g id="Group_13634-8" data-name="Group 13634" transform="translate(1081.45 2919.858)" clip-path="url(#clip-path)">
        <path id="Path_510-8" data-name="Path 510" d="M9.336,0H0L15.994,15.994a5.087,5.087,0,0,0,2.442,1.357,4.869,4.869,0,0,0-2.4,1.314L0,34.726H9.725L26.734,17.363Z" fill="#c4cdff"/>
      </g>
      <g id="Group_13635-8" data-name="Group 13635" transform="translate(1034.716 2919.858)" clip-path="url(#clip-path)">
        <path id="Path_511-8" data-name="Path 511" d="M9.336,0H0L15.994,15.994a5.087,5.087,0,0,0,2.442,1.357,4.869,4.869,0,0,0-2.4,1.314L0,34.726H9.725L26.734,17.363Z" fill="#c4cdff"/>
      </g>
      <g id="Group_13636-8" data-name="Group 13636" transform="translate(987.982 2919.858)" clip-path="url(#clip-path)">
        <path id="Path_512-8" data-name="Path 512" d="M9.336,0H0L15.994,15.994a5.087,5.087,0,0,0,2.442,1.357,4.869,4.869,0,0,0-2.4,1.314L0,34.726H9.725L26.734,17.363Z" fill="#c4cdff"/>
      </g>
      <g id="Group_13637-8" data-name="Group 13637" transform="translate(941.249 2919.858)" clip-path="url(#clip-path)">
        <path id="Path_513-8" data-name="Path 513" d="M9.336,0H0L15.994,15.994a5.087,5.087,0,0,0,2.442,1.357,4.869,4.869,0,0,0-2.4,1.314L0,34.726H9.725L26.734,17.363Z" fill="#c4cdff"/>
      </g>
      <g id="Group_13638-8" data-name="Group 13638" transform="translate(894.515 2919.858)" clip-path="url(#clip-path)">
        <path id="Path_514-8" data-name="Path 514" d="M9.336,0H0L15.994,15.994a5.087,5.087,0,0,0,2.442,1.357,4.869,4.869,0,0,0-2.4,1.314L0,34.726H9.725L26.734,17.363Z" fill="#c4cdff"/>
      </g>
      <g id="Group_13639-8" data-name="Group 13639" transform="translate(847.781 2919.858)" clip-path="url(#clip-path)">
        <path id="Path_515-8" data-name="Path 515" d="M9.336,0H0L15.994,15.994a5.087,5.087,0,0,0,2.442,1.357,4.869,4.869,0,0,0-2.4,1.314L0,34.726H9.725L26.734,17.363Z" fill="#c4cdff"/>
      </g>
      <g id="Group_13640-8" data-name="Group 13640" transform="translate(801.048 2919.858)" clip-path="url(#clip-path)">
        <path id="Path_516-8" data-name="Path 516" d="M9.336,0H0L15.994,15.994a5.087,5.087,0,0,0,2.442,1.357,4.869,4.869,0,0,0-2.4,1.314L0,34.726H9.725L26.734,17.363Z" fill="#c4cdff"/>
      </g>
      <g id="Group_13633-8" data-name="Group 13633" transform="translate(754.314 2919.858)" clip-path="url(#clip-path)">
        <path id="Path_509-8" data-name="Path 509" d="M9.336,0H0L15.994,15.994a5.087,5.087,0,0,0,2.442,1.357,4.869,4.869,0,0,0-2.4,1.314L0,34.726H9.725L26.734,17.363Z" fill="#c4cdff"/>
      </g>
      <g id="Group_13632-8" data-name="Group 13632" transform="translate(707.58 2919.858)" clip-path="url(#clip-path)">
        <path id="Path_508-8" data-name="Path 508" d="M9.336,0H0L15.994,15.994a5.087,5.087,0,0,0,2.442,1.357,4.869,4.869,0,0,0-2.4,1.314L0,34.726H9.725L26.734,17.363Z" fill="#c4cdff"/>
      </g>
      <g id="Group_13631-8" data-name="Group 13631" transform="translate(660.847 2919.858)" clip-path="url(#clip-path)">
        <path id="Path_507-8" data-name="Path 507" d="M9.336,0H0L15.994,15.994a5.087,5.087,0,0,0,2.442,1.357,4.869,4.869,0,0,0-2.4,1.314L0,34.726H9.725L26.734,17.363Z" fill="#c4cdff"/>
      </g>
      <g id="Group_13630-8" data-name="Group 13630" transform="translate(614.113 2919.858)" clip-path="url(#clip-path)">
        <path id="Path_506-8" data-name="Path 506" d="M9.336,0H0L15.994,15.994a5.087,5.087,0,0,0,2.442,1.357,4.869,4.869,0,0,0-2.4,1.314L0,34.726H9.725L26.734,17.363Z" fill="#c4cdff"/>
      </g>
      <g id="Group_13641-8" data-name="Group 13641" transform="translate(567.379 2919.858)" clip-path="url(#clip-path)">
        <path id="Path_517-8" data-name="Path 517" d="M9.336,0H0L15.994,15.994a5.087,5.087,0,0,0,2.442,1.357,4.869,4.869,0,0,0-2.4,1.314L0,34.726H9.725L26.734,17.363Z" fill="#c4cdff"/>
      </g>
      <g id="Group_13642-8" data-name="Group 13642" transform="translate(520.646 2919.858)" clip-path="url(#clip-path)">
        <path id="Path_518-8" data-name="Path 518" d="M9.336,0H0L15.994,15.994a5.087,5.087,0,0,0,2.442,1.357,4.869,4.869,0,0,0-2.4,1.314L0,34.726H9.725L26.734,17.363Z" fill="#c4cdff"/>
      </g>
      <g id="Group_13643-8" data-name="Group 13643" transform="translate(473.912 2919.858)" clip-path="url(#clip-path)">
        <path id="Path_519-8" data-name="Path 519" d="M9.336,0H0L15.994,15.994a5.087,5.087,0,0,0,2.442,1.357,4.869,4.869,0,0,0-2.4,1.314L0,34.726H9.725L26.734,17.363Z" fill="#c4cdff"/>
      </g>
      <g id="Group_13629-8" data-name="Group 13629" transform="translate(427.178 2919.858)" clip-path="url(#clip-path)">
        <path id="Path_505-8" data-name="Path 505" d="M9.336,0H0L15.994,15.994a5.087,5.087,0,0,0,2.442,1.357,4.869,4.869,0,0,0-2.4,1.314L0,34.726H9.725L26.734,17.363Z" fill="#c4cdff"/>
      </g>
      <g id="Group_13628-8" data-name="Group 13628" transform="translate(380.445 2919.858)" clip-path="url(#clip-path)">
        <path id="Path_504-8" data-name="Path 504" d="M9.336,0H0L15.994,15.994a5.087,5.087,0,0,0,2.442,1.357,4.869,4.869,0,0,0-2.4,1.314L0,34.726H9.725L26.734,17.363Z" fill="#c4cdff"/>
      </g>
      <g id="Group_13620-8" data-name="Group 13620" transform="translate(333.711 2919.858)" clip-path="url(#clip-path)">
        <path id="Path_499-8" data-name="Path 499" d="M9.336,0H0L15.994,15.994a5.087,5.087,0,0,0,2.442,1.357,4.869,4.869,0,0,0-2.4,1.314L0,34.726H9.725L26.734,17.363Z" fill="#c4cdff"/>
      </g>
    </g>
    <g id="Group_13649" data-name="Group 13649" transform="translate(-428.314 -1680.823)">
      <g id="Group_13634-9" data-name="Group 13634" transform="translate(1081.45 2919.858)" clip-path="url(#clip-path)">
        <path id="Path_510-9" data-name="Path 510" d="M9.336,0H0L15.994,15.994a5.087,5.087,0,0,0,2.442,1.357,4.869,4.869,0,0,0-2.4,1.314L0,34.726H9.725L26.734,17.363Z" fill="#c4cdff"/>
      </g>
      <g id="Group_13635-9" data-name="Group 13635" transform="translate(1034.716 2919.858)" clip-path="url(#clip-path)">
        <path id="Path_511-9" data-name="Path 511" d="M9.336,0H0L15.994,15.994a5.087,5.087,0,0,0,2.442,1.357,4.869,4.869,0,0,0-2.4,1.314L0,34.726H9.725L26.734,17.363Z" fill="#c4cdff"/>
      </g>
      <g id="Group_13636-9" data-name="Group 13636" transform="translate(987.982 2919.858)" clip-path="url(#clip-path)">
        <path id="Path_512-9" data-name="Path 512" d="M9.336,0H0L15.994,15.994a5.087,5.087,0,0,0,2.442,1.357,4.869,4.869,0,0,0-2.4,1.314L0,34.726H9.725L26.734,17.363Z" fill="#c4cdff"/>
      </g>
      <g id="Group_13637-9" data-name="Group 13637" transform="translate(941.249 2919.858)" clip-path="url(#clip-path)">
        <path id="Path_513-9" data-name="Path 513" d="M9.336,0H0L15.994,15.994a5.087,5.087,0,0,0,2.442,1.357,4.869,4.869,0,0,0-2.4,1.314L0,34.726H9.725L26.734,17.363Z" fill="#c4cdff"/>
      </g>
      <g id="Group_13638-9" data-name="Group 13638" transform="translate(894.515 2919.858)" clip-path="url(#clip-path)">
        <path id="Path_514-9" data-name="Path 514" d="M9.336,0H0L15.994,15.994a5.087,5.087,0,0,0,2.442,1.357,4.869,4.869,0,0,0-2.4,1.314L0,34.726H9.725L26.734,17.363Z" fill="#c4cdff"/>
      </g>
      <g id="Group_13639-9" data-name="Group 13639" transform="translate(847.781 2919.858)" clip-path="url(#clip-path)">
        <path id="Path_515-9" data-name="Path 515" d="M9.336,0H0L15.994,15.994a5.087,5.087,0,0,0,2.442,1.357,4.869,4.869,0,0,0-2.4,1.314L0,34.726H9.725L26.734,17.363Z" fill="#c4cdff"/>
      </g>
      <g id="Group_13640-9" data-name="Group 13640" transform="translate(801.048 2919.858)" clip-path="url(#clip-path)">
        <path id="Path_516-9" data-name="Path 516" d="M9.336,0H0L15.994,15.994a5.087,5.087,0,0,0,2.442,1.357,4.869,4.869,0,0,0-2.4,1.314L0,34.726H9.725L26.734,17.363Z" fill="#c4cdff"/>
      </g>
      <g id="Group_13633-9" data-name="Group 13633" transform="translate(754.314 2919.858)" clip-path="url(#clip-path)">
        <path id="Path_509-9" data-name="Path 509" d="M9.336,0H0L15.994,15.994a5.087,5.087,0,0,0,2.442,1.357,4.869,4.869,0,0,0-2.4,1.314L0,34.726H9.725L26.734,17.363Z" fill="#c4cdff"/>
      </g>
      <g id="Group_13632-9" data-name="Group 13632" transform="translate(707.58 2919.858)" clip-path="url(#clip-path)">
        <path id="Path_508-9" data-name="Path 508" d="M9.336,0H0L15.994,15.994a5.087,5.087,0,0,0,2.442,1.357,4.869,4.869,0,0,0-2.4,1.314L0,34.726H9.725L26.734,17.363Z" fill="#c4cdff"/>
      </g>
      <g id="Group_13631-9" data-name="Group 13631" transform="translate(660.847 2919.858)" clip-path="url(#clip-path)">
        <path id="Path_507-9" data-name="Path 507" d="M9.336,0H0L15.994,15.994a5.087,5.087,0,0,0,2.442,1.357,4.869,4.869,0,0,0-2.4,1.314L0,34.726H9.725L26.734,17.363Z" fill="#c4cdff"/>
      </g>
      <g id="Group_13630-9" data-name="Group 13630" transform="translate(614.113 2919.858)" clip-path="url(#clip-path)">
        <path id="Path_506-9" data-name="Path 506" d="M9.336,0H0L15.994,15.994a5.087,5.087,0,0,0,2.442,1.357,4.869,4.869,0,0,0-2.4,1.314L0,34.726H9.725L26.734,17.363Z" fill="#c4cdff"/>
      </g>
      <g id="Group_13641-9" data-name="Group 13641" transform="translate(567.379 2919.858)" clip-path="url(#clip-path)">
        <path id="Path_517-9" data-name="Path 517" d="M9.336,0H0L15.994,15.994a5.087,5.087,0,0,0,2.442,1.357,4.869,4.869,0,0,0-2.4,1.314L0,34.726H9.725L26.734,17.363Z" fill="#c4cdff"/>
      </g>
      <g id="Group_13642-9" data-name="Group 13642" transform="translate(520.646 2919.858)" clip-path="url(#clip-path)">
        <path id="Path_518-9" data-name="Path 518" d="M9.336,0H0L15.994,15.994a5.087,5.087,0,0,0,2.442,1.357,4.869,4.869,0,0,0-2.4,1.314L0,34.726H9.725L26.734,17.363Z" fill="#c4cdff"/>
      </g>
      <g id="Group_13643-9" data-name="Group 13643" transform="translate(473.912 2919.858)" clip-path="url(#clip-path)">
        <path id="Path_519-9" data-name="Path 519" d="M9.336,0H0L15.994,15.994a5.087,5.087,0,0,0,2.442,1.357,4.869,4.869,0,0,0-2.4,1.314L0,34.726H9.725L26.734,17.363Z" fill="#c4cdff"/>
      </g>
      <g id="Group_13629-9" data-name="Group 13629" transform="translate(427.178 2919.858)" clip-path="url(#clip-path)">
        <path id="Path_505-9" data-name="Path 505" d="M9.336,0H0L15.994,15.994a5.087,5.087,0,0,0,2.442,1.357,4.869,4.869,0,0,0-2.4,1.314L0,34.726H9.725L26.734,17.363Z" fill="#c4cdff"/>
      </g>
      <g id="Group_13628-9" data-name="Group 13628" transform="translate(380.445 2919.858)" clip-path="url(#clip-path)">
        <path id="Path_504-9" data-name="Path 504" d="M9.336,0H0L15.994,15.994a5.087,5.087,0,0,0,2.442,1.357,4.869,4.869,0,0,0-2.4,1.314L0,34.726H9.725L26.734,17.363Z" fill="#c4cdff"/>
      </g>
      <g id="Group_13620-9" data-name="Group 13620" transform="translate(333.711 2919.858)" clip-path="url(#clip-path)">
        <path id="Path_499-9" data-name="Path 499" d="M9.336,0H0L15.994,15.994a5.087,5.087,0,0,0,2.442,1.357,4.869,4.869,0,0,0-2.4,1.314L0,34.726H9.725L26.734,17.363Z" fill="#c4cdff"/>
      </g>
    </g>
    <g id="Group_13646" data-name="Group 13646" transform="translate(-428.314 -1734.549)">
      <g id="Group_13634-10" data-name="Group 13634" transform="translate(1081.45 2919.858)" clip-path="url(#clip-path)">
        <path id="Path_510-10" data-name="Path 510" d="M9.336,0H0L15.994,15.994a5.087,5.087,0,0,0,2.442,1.357,4.869,4.869,0,0,0-2.4,1.314L0,34.726H9.725L26.734,17.363Z" fill="#c4cdff"/>
      </g>
      <g id="Group_13635-10" data-name="Group 13635" transform="translate(1034.716 2919.858)" clip-path="url(#clip-path)">
        <path id="Path_511-10" data-name="Path 511" d="M9.336,0H0L15.994,15.994a5.087,5.087,0,0,0,2.442,1.357,4.869,4.869,0,0,0-2.4,1.314L0,34.726H9.725L26.734,17.363Z" fill="#c4cdff"/>
      </g>
      <g id="Group_13636-10" data-name="Group 13636" transform="translate(987.982 2919.858)" clip-path="url(#clip-path)">
        <path id="Path_512-10" data-name="Path 512" d="M9.336,0H0L15.994,15.994a5.087,5.087,0,0,0,2.442,1.357,4.869,4.869,0,0,0-2.4,1.314L0,34.726H9.725L26.734,17.363Z" fill="#c4cdff"/>
      </g>
      <g id="Group_13637-10" data-name="Group 13637" transform="translate(941.249 2919.858)" clip-path="url(#clip-path)">
        <path id="Path_513-10" data-name="Path 513" d="M9.336,0H0L15.994,15.994a5.087,5.087,0,0,0,2.442,1.357,4.869,4.869,0,0,0-2.4,1.314L0,34.726H9.725L26.734,17.363Z" fill="#c4cdff"/>
      </g>
      <g id="Group_13638-10" data-name="Group 13638" transform="translate(894.515 2919.858)" clip-path="url(#clip-path)">
        <path id="Path_514-10" data-name="Path 514" d="M9.336,0H0L15.994,15.994a5.087,5.087,0,0,0,2.442,1.357,4.869,4.869,0,0,0-2.4,1.314L0,34.726H9.725L26.734,17.363Z" fill="#c4cdff"/>
      </g>
      <g id="Group_13639-10" data-name="Group 13639" transform="translate(847.781 2919.858)" clip-path="url(#clip-path)">
        <path id="Path_515-10" data-name="Path 515" d="M9.336,0H0L15.994,15.994a5.087,5.087,0,0,0,2.442,1.357,4.869,4.869,0,0,0-2.4,1.314L0,34.726H9.725L26.734,17.363Z" fill="#c4cdff"/>
      </g>
      <g id="Group_13640-10" data-name="Group 13640" transform="translate(801.048 2919.858)" clip-path="url(#clip-path)">
        <path id="Path_516-10" data-name="Path 516" d="M9.336,0H0L15.994,15.994a5.087,5.087,0,0,0,2.442,1.357,4.869,4.869,0,0,0-2.4,1.314L0,34.726H9.725L26.734,17.363Z" fill="#c4cdff"/>
      </g>
      <g id="Group_13633-10" data-name="Group 13633" transform="translate(754.314 2919.858)" clip-path="url(#clip-path)">
        <path id="Path_509-10" data-name="Path 509" d="M9.336,0H0L15.994,15.994a5.087,5.087,0,0,0,2.442,1.357,4.869,4.869,0,0,0-2.4,1.314L0,34.726H9.725L26.734,17.363Z" fill="#c4cdff"/>
      </g>
      <g id="Group_13632-10" data-name="Group 13632" transform="translate(707.58 2919.858)" clip-path="url(#clip-path)">
        <path id="Path_508-10" data-name="Path 508" d="M9.336,0H0L15.994,15.994a5.087,5.087,0,0,0,2.442,1.357,4.869,4.869,0,0,0-2.4,1.314L0,34.726H9.725L26.734,17.363Z" fill="#c4cdff"/>
      </g>
      <g id="Group_13631-10" data-name="Group 13631" transform="translate(660.847 2919.858)" clip-path="url(#clip-path)">
        <path id="Path_507-10" data-name="Path 507" d="M9.336,0H0L15.994,15.994a5.087,5.087,0,0,0,2.442,1.357,4.869,4.869,0,0,0-2.4,1.314L0,34.726H9.725L26.734,17.363Z" fill="#c4cdff"/>
      </g>
      <g id="Group_13630-10" data-name="Group 13630" transform="translate(614.113 2919.858)" clip-path="url(#clip-path)">
        <path id="Path_506-10" data-name="Path 506" d="M9.336,0H0L15.994,15.994a5.087,5.087,0,0,0,2.442,1.357,4.869,4.869,0,0,0-2.4,1.314L0,34.726H9.725L26.734,17.363Z" fill="#c4cdff"/>
      </g>
      <g id="Group_13641-10" data-name="Group 13641" transform="translate(567.379 2919.858)" clip-path="url(#clip-path)">
        <path id="Path_517-10" data-name="Path 517" d="M9.336,0H0L15.994,15.994a5.087,5.087,0,0,0,2.442,1.357,4.869,4.869,0,0,0-2.4,1.314L0,34.726H9.725L26.734,17.363Z" fill="#c4cdff"/>
      </g>
      <g id="Group_13642-10" data-name="Group 13642" transform="translate(520.646 2919.858)" clip-path="url(#clip-path)">
        <path id="Path_518-10" data-name="Path 518" d="M9.336,0H0L15.994,15.994a5.087,5.087,0,0,0,2.442,1.357,4.869,4.869,0,0,0-2.4,1.314L0,34.726H9.725L26.734,17.363Z" fill="#c4cdff"/>
      </g>
      <g id="Group_13643-10" data-name="Group 13643" transform="translate(473.912 2919.858)" clip-path="url(#clip-path)">
        <path id="Path_519-10" data-name="Path 519" d="M9.336,0H0L15.994,15.994a5.087,5.087,0,0,0,2.442,1.357,4.869,4.869,0,0,0-2.4,1.314L0,34.726H9.725L26.734,17.363Z" fill="#c4cdff"/>
      </g>
      <g id="Group_13629-10" data-name="Group 13629" transform="translate(427.178 2919.858)" clip-path="url(#clip-path)">
        <path id="Path_505-10" data-name="Path 505" d="M9.336,0H0L15.994,15.994a5.087,5.087,0,0,0,2.442,1.357,4.869,4.869,0,0,0-2.4,1.314L0,34.726H9.725L26.734,17.363Z" fill="#c4cdff"/>
      </g>
      <g id="Group_13628-10" data-name="Group 13628" transform="translate(380.445 2919.858)" clip-path="url(#clip-path)">
        <path id="Path_504-10" data-name="Path 504" d="M9.336,0H0L15.994,15.994a5.087,5.087,0,0,0,2.442,1.357,4.869,4.869,0,0,0-2.4,1.314L0,34.726H9.725L26.734,17.363Z" fill="#c4cdff"/>
      </g>
      <g id="Group_13620-10" data-name="Group 13620" transform="translate(333.711 2919.858)" clip-path="url(#clip-path)">
        <path id="Path_499-10" data-name="Path 499" d="M9.336,0H0L15.994,15.994a5.087,5.087,0,0,0,2.442,1.357,4.869,4.869,0,0,0-2.4,1.314L0,34.726H9.725L26.734,17.363Z" fill="#c4cdff"/>
      </g>
    </g>
    <g id="Group_13644" data-name="Group 13644" transform="translate(-428.314 -1788.274)">
      <g id="Group_13634-11" data-name="Group 13634" transform="translate(1081.45 2919.858)" clip-path="url(#clip-path)">
        <path id="Path_510-11" data-name="Path 510" d="M9.336,0H0L15.994,15.994a5.087,5.087,0,0,0,2.442,1.357,4.869,4.869,0,0,0-2.4,1.314L0,34.726H9.725L26.734,17.363Z" fill="#c4cdff"/>
      </g>
      <g id="Group_13635-11" data-name="Group 13635" transform="translate(1034.716 2919.858)" clip-path="url(#clip-path)">
        <path id="Path_511-11" data-name="Path 511" d="M9.336,0H0L15.994,15.994a5.087,5.087,0,0,0,2.442,1.357,4.869,4.869,0,0,0-2.4,1.314L0,34.726H9.725L26.734,17.363Z" fill="#c4cdff"/>
      </g>
      <g id="Group_13636-11" data-name="Group 13636" transform="translate(987.982 2919.858)" clip-path="url(#clip-path)">
        <path id="Path_512-11" data-name="Path 512" d="M9.336,0H0L15.994,15.994a5.087,5.087,0,0,0,2.442,1.357,4.869,4.869,0,0,0-2.4,1.314L0,34.726H9.725L26.734,17.363Z" fill="#c4cdff"/>
      </g>
      <g id="Group_13637-11" data-name="Group 13637" transform="translate(941.249 2919.858)" clip-path="url(#clip-path)">
        <path id="Path_513-11" data-name="Path 513" d="M9.336,0H0L15.994,15.994a5.087,5.087,0,0,0,2.442,1.357,4.869,4.869,0,0,0-2.4,1.314L0,34.726H9.725L26.734,17.363Z" fill="#c4cdff"/>
      </g>
      <g id="Group_13638-11" data-name="Group 13638" transform="translate(894.515 2919.858)" clip-path="url(#clip-path)">
        <path id="Path_514-11" data-name="Path 514" d="M9.336,0H0L15.994,15.994a5.087,5.087,0,0,0,2.442,1.357,4.869,4.869,0,0,0-2.4,1.314L0,34.726H9.725L26.734,17.363Z" fill="#c4cdff"/>
      </g>
      <g id="Group_13639-11" data-name="Group 13639" transform="translate(847.781 2919.858)" clip-path="url(#clip-path)">
        <path id="Path_515-11" data-name="Path 515" d="M9.336,0H0L15.994,15.994a5.087,5.087,0,0,0,2.442,1.357,4.869,4.869,0,0,0-2.4,1.314L0,34.726H9.725L26.734,17.363Z" fill="#c4cdff"/>
      </g>
      <g id="Group_13640-11" data-name="Group 13640" transform="translate(801.048 2919.858)" clip-path="url(#clip-path)">
        <path id="Path_516-11" data-name="Path 516" d="M9.336,0H0L15.994,15.994a5.087,5.087,0,0,0,2.442,1.357,4.869,4.869,0,0,0-2.4,1.314L0,34.726H9.725L26.734,17.363Z" fill="#c4cdff"/>
      </g>
      <g id="Group_13633-11" data-name="Group 13633" transform="translate(754.314 2919.858)" clip-path="url(#clip-path)">
        <path id="Path_509-11" data-name="Path 509" d="M9.336,0H0L15.994,15.994a5.087,5.087,0,0,0,2.442,1.357,4.869,4.869,0,0,0-2.4,1.314L0,34.726H9.725L26.734,17.363Z" fill="#c4cdff"/>
      </g>
      <g id="Group_13632-11" data-name="Group 13632" transform="translate(707.58 2919.858)" clip-path="url(#clip-path)">
        <path id="Path_508-11" data-name="Path 508" d="M9.336,0H0L15.994,15.994a5.087,5.087,0,0,0,2.442,1.357,4.869,4.869,0,0,0-2.4,1.314L0,34.726H9.725L26.734,17.363Z" fill="#c4cdff"/>
      </g>
      <g id="Group_13631-11" data-name="Group 13631" transform="translate(660.847 2919.858)" clip-path="url(#clip-path)">
        <path id="Path_507-11" data-name="Path 507" d="M9.336,0H0L15.994,15.994a5.087,5.087,0,0,0,2.442,1.357,4.869,4.869,0,0,0-2.4,1.314L0,34.726H9.725L26.734,17.363Z" fill="#c4cdff"/>
      </g>
      <g id="Group_13630-11" data-name="Group 13630" transform="translate(614.113 2919.858)" clip-path="url(#clip-path)">
        <path id="Path_506-11" data-name="Path 506" d="M9.336,0H0L15.994,15.994a5.087,5.087,0,0,0,2.442,1.357,4.869,4.869,0,0,0-2.4,1.314L0,34.726H9.725L26.734,17.363Z" fill="#c4cdff"/>
      </g>
      <g id="Group_13641-11" data-name="Group 13641" transform="translate(567.379 2919.858)" clip-path="url(#clip-path)">
        <path id="Path_517-11" data-name="Path 517" d="M9.336,0H0L15.994,15.994a5.087,5.087,0,0,0,2.442,1.357,4.869,4.869,0,0,0-2.4,1.314L0,34.726H9.725L26.734,17.363Z" fill="#c4cdff"/>
      </g>
      <g id="Group_13642-11" data-name="Group 13642" transform="translate(520.646 2919.858)" clip-path="url(#clip-path)">
        <path id="Path_518-11" data-name="Path 518" d="M9.336,0H0L15.994,15.994a5.087,5.087,0,0,0,2.442,1.357,4.869,4.869,0,0,0-2.4,1.314L0,34.726H9.725L26.734,17.363Z" fill="#c4cdff"/>
      </g>
      <g id="Group_13643-11" data-name="Group 13643" transform="translate(473.912 2919.858)" clip-path="url(#clip-path)">
        <path id="Path_519-11" data-name="Path 519" d="M9.336,0H0L15.994,15.994a5.087,5.087,0,0,0,2.442,1.357,4.869,4.869,0,0,0-2.4,1.314L0,34.726H9.725L26.734,17.363Z" fill="#c4cdff"/>
      </g>
      <g id="Group_13629-11" data-name="Group 13629" transform="translate(427.178 2919.858)" clip-path="url(#clip-path)">
        <path id="Path_505-11" data-name="Path 505" d="M9.336,0H0L15.994,15.994a5.087,5.087,0,0,0,2.442,1.357,4.869,4.869,0,0,0-2.4,1.314L0,34.726H9.725L26.734,17.363Z" fill="#c4cdff"/>
      </g>
      <g id="Group_13628-11" data-name="Group 13628" transform="translate(380.445 2919.858)" clip-path="url(#clip-path)">
        <path id="Path_504-11" data-name="Path 504" d="M9.336,0H0L15.994,15.994a5.087,5.087,0,0,0,2.442,1.357,4.869,4.869,0,0,0-2.4,1.314L0,34.726H9.725L26.734,17.363Z" fill="#c4cdff"/>
      </g>
      <g id="Group_13620-11" data-name="Group 13620" transform="translate(333.711 2919.858)" clip-path="url(#clip-path)">
        <path id="Path_499-11" data-name="Path 499" d="M9.336,0H0L15.994,15.994a5.087,5.087,0,0,0,2.442,1.357,4.869,4.869,0,0,0-2.4,1.314L0,34.726H9.725L26.734,17.363Z" fill="#c4cdff"/>
      </g>
    </g>
    <g id="Group_13627-2" data-name="Group 13627" transform="translate(-428.314 -1842)">
      <g id="Group_13634-12" data-name="Group 13634" transform="translate(1081.45 2919.858)" clip-path="url(#clip-path)">
        <path id="Path_510-12" data-name="Path 510" d="M9.336,0H0L15.994,15.994a5.087,5.087,0,0,0,2.442,1.357,4.869,4.869,0,0,0-2.4,1.314L0,34.726H9.725L26.734,17.363Z" fill="#c4cdff"/>
      </g>
      <g id="Group_13635-12" data-name="Group 13635" transform="translate(1034.716 2919.858)" clip-path="url(#clip-path)">
        <path id="Path_511-12" data-name="Path 511" d="M9.336,0H0L15.994,15.994a5.087,5.087,0,0,0,2.442,1.357,4.869,4.869,0,0,0-2.4,1.314L0,34.726H9.725L26.734,17.363Z" fill="#c4cdff"/>
      </g>
      <g id="Group_13636-12" data-name="Group 13636" transform="translate(987.982 2919.858)" clip-path="url(#clip-path)">
        <path id="Path_512-12" data-name="Path 512" d="M9.336,0H0L15.994,15.994a5.087,5.087,0,0,0,2.442,1.357,4.869,4.869,0,0,0-2.4,1.314L0,34.726H9.725L26.734,17.363Z" fill="#c4cdff"/>
      </g>
      <g id="Group_13637-12" data-name="Group 13637" transform="translate(941.249 2919.858)" clip-path="url(#clip-path)">
        <path id="Path_513-12" data-name="Path 513" d="M9.336,0H0L15.994,15.994a5.087,5.087,0,0,0,2.442,1.357,4.869,4.869,0,0,0-2.4,1.314L0,34.726H9.725L26.734,17.363Z" fill="#c4cdff"/>
      </g>
      <g id="Group_13638-12" data-name="Group 13638" transform="translate(894.515 2919.858)" clip-path="url(#clip-path)">
        <path id="Path_514-12" data-name="Path 514" d="M9.336,0H0L15.994,15.994a5.087,5.087,0,0,0,2.442,1.357,4.869,4.869,0,0,0-2.4,1.314L0,34.726H9.725L26.734,17.363Z" fill="#c4cdff"/>
      </g>
      <g id="Group_13639-12" data-name="Group 13639" transform="translate(847.781 2919.858)" clip-path="url(#clip-path)">
        <path id="Path_515-12" data-name="Path 515" d="M9.336,0H0L15.994,15.994a5.087,5.087,0,0,0,2.442,1.357,4.869,4.869,0,0,0-2.4,1.314L0,34.726H9.725L26.734,17.363Z" fill="#c4cdff"/>
      </g>
      <g id="Group_13640-12" data-name="Group 13640" transform="translate(801.048 2919.858)" clip-path="url(#clip-path)">
        <path id="Path_516-12" data-name="Path 516" d="M9.336,0H0L15.994,15.994a5.087,5.087,0,0,0,2.442,1.357,4.869,4.869,0,0,0-2.4,1.314L0,34.726H9.725L26.734,17.363Z" fill="#c4cdff"/>
      </g>
      <g id="Group_13633-12" data-name="Group 13633" transform="translate(754.314 2919.858)" clip-path="url(#clip-path)">
        <path id="Path_509-12" data-name="Path 509" d="M9.336,0H0L15.994,15.994a5.087,5.087,0,0,0,2.442,1.357,4.869,4.869,0,0,0-2.4,1.314L0,34.726H9.725L26.734,17.363Z" fill="#c4cdff"/>
      </g>
      <g id="Group_13632-12" data-name="Group 13632" transform="translate(707.58 2919.858)" clip-path="url(#clip-path)">
        <path id="Path_508-12" data-name="Path 508" d="M9.336,0H0L15.994,15.994a5.087,5.087,0,0,0,2.442,1.357,4.869,4.869,0,0,0-2.4,1.314L0,34.726H9.725L26.734,17.363Z" fill="#c4cdff"/>
      </g>
      <g id="Group_13631-12" data-name="Group 13631" transform="translate(660.847 2919.858)" clip-path="url(#clip-path)">
        <path id="Path_507-12" data-name="Path 507" d="M9.336,0H0L15.994,15.994a5.087,5.087,0,0,0,2.442,1.357,4.869,4.869,0,0,0-2.4,1.314L0,34.726H9.725L26.734,17.363Z" fill="#c4cdff"/>
      </g>
      <g id="Group_13630-12" data-name="Group 13630" transform="translate(614.113 2919.858)" clip-path="url(#clip-path)">
        <path id="Path_506-12" data-name="Path 506" d="M9.336,0H0L15.994,15.994a5.087,5.087,0,0,0,2.442,1.357,4.869,4.869,0,0,0-2.4,1.314L0,34.726H9.725L26.734,17.363Z" fill="#c4cdff"/>
      </g>
      <g id="Group_13641-12" data-name="Group 13641" transform="translate(567.379 2919.858)" clip-path="url(#clip-path)">
        <path id="Path_517-12" data-name="Path 517" d="M9.336,0H0L15.994,15.994a5.087,5.087,0,0,0,2.442,1.357,4.869,4.869,0,0,0-2.4,1.314L0,34.726H9.725L26.734,17.363Z" fill="#c4cdff"/>
      </g>
      <g id="Group_13642-12" data-name="Group 13642" transform="translate(520.646 2919.858)" clip-path="url(#clip-path)">
        <path id="Path_518-12" data-name="Path 518" d="M9.336,0H0L15.994,15.994a5.087,5.087,0,0,0,2.442,1.357,4.869,4.869,0,0,0-2.4,1.314L0,34.726H9.725L26.734,17.363Z" fill="#c4cdff"/>
      </g>
      <g id="Group_13643-12" data-name="Group 13643" transform="translate(473.912 2919.858)" clip-path="url(#clip-path)">
        <path id="Path_519-12" data-name="Path 519" d="M9.336,0H0L15.994,15.994a5.087,5.087,0,0,0,2.442,1.357,4.869,4.869,0,0,0-2.4,1.314L0,34.726H9.725L26.734,17.363Z" fill="#c4cdff"/>
      </g>
      <g id="Group_13629-12" data-name="Group 13629" transform="translate(427.178 2919.858)" clip-path="url(#clip-path)">
        <path id="Path_505-12" data-name="Path 505" d="M9.336,0H0L15.994,15.994a5.087,5.087,0,0,0,2.442,1.357,4.869,4.869,0,0,0-2.4,1.314L0,34.726H9.725L26.734,17.363Z" fill="#c4cdff"/>
      </g>
      <g id="Group_13628-12" data-name="Group 13628" transform="translate(380.445 2919.858)" clip-path="url(#clip-path)">
        <path id="Path_504-12" data-name="Path 504" d="M9.336,0H0L15.994,15.994a5.087,5.087,0,0,0,2.442,1.357,4.869,4.869,0,0,0-2.4,1.314L0,34.726H9.725L26.734,17.363Z" fill="#c4cdff"/>
      </g>
      <g id="Group_13620-12" data-name="Group 13620" transform="translate(333.711 2919.858)" clip-path="url(#clip-path)">
        <path id="Path_499-12" data-name="Path 499" d="M9.336,0H0L15.994,15.994a5.087,5.087,0,0,0,2.442,1.357,4.869,4.869,0,0,0-2.4,1.314L0,34.726H9.725L26.734,17.363Z" fill="#c4cdff"/>
      </g>
    </g>
  </g>
</svg>
