<?xml version="1.0" encoding="UTF-8"?><svg id="Layer_1" xmlns="http://www.w3.org/2000/svg" viewBox="0 0 100 40"><defs><style>.cls-1{fill:#fff;}</style></defs><polygon class="cls-1" points="81.29 23.83 81.1 13.12 84.48 13.12 84.48 26.63 79.63 26.63 76.25 15.55 76.18 15.55 76.37 26.63 73.01 26.63 73.01 13.12 78.08 13.12 81.21 23.83 81.29 23.83"/><polygon class="cls-1" points="19.89 14.38 18.02 26.76 14.33 26.76 16.86 13.12 22.93 13.12 25.45 26.76 21.79 26.76 19.96 14.38 19.89 14.38"/><polygon class="cls-1" points="35.8 23.56 37.49 13.12 43.05 13.12 43.35 26.76 39.93 26.76 39.84 14.5 39.77 14.5 37.49 26.76 34.03 26.76 31.75 14.5 31.67 14.5 31.59 26.76 28.17 26.76 28.48 13.12 34.05 13.12 35.72 23.56 35.8 23.56"/><path class="cls-1" d="m8.59,22.92c.13.33.09.75.03,1.02-.12.45-.42.91-1.33.91-.86,0-1.37-.49-1.37-1.24v-1.32h-3.66v1.06c0,3.04,2.39,3.96,4.96,3.96s4.5-.84,4.82-3.11c.17-1.17.04-1.95-.01-2.24-.58-2.85-5.75-3.71-6.14-5.3-.07-.28-.05-.57-.01-.73.09-.44.4-.91,1.24-.91.79,0,1.27.49,1.27,1.24v.84h3.4v-.96c0-2.97-2.67-3.43-4.59-3.43-2.43,0-4.41.8-4.78,3.02-.09.62-.11,1.16.03,1.85.59,2.78,5.44,3.59,6.15,5.36Z"/><path class="cls-1" d="m52.96,22.9c.13.33.09.74.03,1-.11.45-.42.91-1.32.91-.84,0-1.36-.49-1.36-1.23v-1.31h-3.63v1.04c0,3.01,2.36,3.92,4.91,3.92s4.46-.83,4.78-3.09c.17-1.17.05-1.93,0-2.22-.57-2.82-5.7-3.67-6.08-5.25-.07-.28-.05-.55-.01-.71.09-.44.4-.91,1.24-.91.79,0,1.25.48,1.25,1.23v.83h3.38v-.95c0-2.94-2.64-3.4-4.57-3.4-2.4,0-4.37.79-4.72,3-.09.61-.11,1.13.03,1.82.58,2.76,5.38,3.56,6.08,5.3h0Z"/><path class="cls-1" d="m64.41,24.73c.95,0,1.24-.66,1.31-.99.03-.15.04-.34.03-.51v-10.1h3.44v9.79c0,.25-.01.77-.03.9-.24,2.55-2.26,3.38-4.76,3.38s-4.53-.83-4.76-3.38c0-.13-.04-.65-.03-.9v-9.79h3.44v10.1c0,.17,0,.38.03.51.08.33.36.99,1.32.99h.01Z"/><path class="cls-1" d="m92.88,24.59c.99,0,1.33-.62,1.4-.99.03-.16.03-.34.03-.51v-1.98h-1.4v-1.99h4.84v3.67c0,.25,0,.45-.05.9-.22,2.48-2.38,3.37-4.8,3.37s-4.57-.88-4.8-3.37c-.04-.46-.04-.65-.05-.9v-5.74c0-.24.03-.67.07-.9.3-2.55,2.38-3.37,4.79-3.37s4.54.82,4.79,3.37c.04.44.03.9.03.9v.46h-3.44v-.77s0-.33-.04-.51c-.05-.3-.32-.99-1.36-.99s-1.28.66-1.36.99c-.04.18-.05.42-.05.65v6.24c0,.17,0,.36.04.51.05.36.4.98,1.39.98h0Z"/></svg>