<?xml version="1.0" encoding="UTF-8"?><svg id="Layer_1" xmlns="http://www.w3.org/2000/svg" viewBox="0 0 100 40"><defs><style>.cls-1{fill:#fff;fill-rule:evenodd;}</style></defs><g id="SIEMENS"><path class="cls-1" d="m.31,27.35v-3.01c1.71.54,3.23.81,4.54.81,1.82,0,2.73-.48,2.73-1.44,0-.36-.13-.66-.4-.9-.27-.26-.97-.62-2.08-1.08-2-.82-3.31-1.53-3.92-2.11C.39,18.85,0,17.89,0,16.72,0,15.21.57,14.07,1.72,13.28c1.13-.78,2.61-1.17,4.43-1.17,1,0,2.46.18,4.36.55v2.89c-1.41-.56-2.73-.85-3.94-.85-1.71,0-2.56.47-2.56,1.41,0,.35.17.64.52.86.29.18,1.08.56,2.37,1.14,1.86.83,3.1,1.54,3.71,2.15.73.72,1.1,1.66,1.1,2.81,0,1.65-.72,2.91-2.15,3.78-1.16.7-2.67,1.05-4.52,1.05-1.56,0-3.14-.18-4.72-.55,0,0-.01,0-.01,0Z"/><polygon class="cls-1" points="14.11 12.36 14.11 12.36 18.36 12.36 18.36 27.59 14.11 27.59 14.11 12.36"/><polygon class="cls-1" points="22.26 27.59 22.26 12.36 33.17 12.36 33.17 15.12 26.36 15.12 26.36 18.56 32.29 18.56 32.29 21.07 26.36 21.07 26.36 24.68 33.35 24.68 33.35 27.59 22.26 27.59"/><polygon class="cls-1" points="36.12 27.59 36.12 12.36 41.64 12.36 45.47 22.09 49.4 12.36 54.64 12.36 54.64 27.59 50.61 27.59 50.61 16.81 46.14 27.75 43.5 27.75 39.12 16.81 39.12 27.59 36.12 27.59"/><polygon class="cls-1" points="58.54 27.59 58.54 12.36 69.45 12.36 69.45 15.12 62.64 15.12 62.64 18.56 68.57 18.56 68.57 21.07 62.64 21.07 62.64 24.68 69.63 24.68 69.63 27.59 58.54 27.59"/><polygon class="cls-1" points="72.43 27.59 72.43 12.36 77.36 12.36 82.59 22.56 82.59 12.36 85.58 12.36 85.58 27.59 80.79 27.59 75.42 17.26 75.42 27.59 72.43 27.59"/><path class="cls-1" d="m88.6,27.35v-3.01c1.7.54,3.21.81,4.55.81,1.82,0,2.73-.48,2.73-1.44,0-.36-.13-.66-.39-.9-.27-.26-.97-.62-2.09-1.08-2-.82-3.31-1.52-3.92-2.11-.79-.76-1.18-1.73-1.18-2.91,0-1.5.57-2.64,1.72-3.43,1.13-.78,2.61-1.17,4.43-1.17,1.02,0,2.35.16,3.98.49l.38.07v2.89c-1.41-.56-2.73-.85-3.95-.85-1.7,0-2.55.47-2.55,1.41,0,.35.17.64.51.86.27.17,1.07.55,2.38,1.14,1.84.83,3.08,1.54,3.7,2.15.73.72,1.1,1.66,1.1,2.81,0,1.65-.71,2.91-2.14,3.78-1.17.7-2.68,1.05-4.53,1.05-1.56,0-3.14-.18-4.72-.55h-.01Z"/></g></svg>